<mxfile host="app.diagrams.net" agent="Mozilla/5.0 (Windows NT 10.0; Win64; x64) AppleWebKit/537.36 (KHTML, like Gecko) Chrome/138.0.0.0 Safari/537.36" version="27.2.0">
  <diagram name="‫صفحه - 1‬" id="Bj_tVn8ZDD87iNo-JJxn">
    <mxGraphModel dx="3970" dy="1249" grid="1" gridSize="10" guides="1" tooltips="1" connect="1" arrows="1" fold="1" page="1" pageScale="1" pageWidth="827" pageHeight="1169" background="light-dark(#FFFFFF,#000000)" math="0" shadow="0">
      <root>
        <mxCell id="0" />
        <mxCell id="1" parent="0" />
        <mxCell id="V9Rv2FVIS_NpuzhTLpX6-1" value="Authors" style="swimlane;fontStyle=0;childLayout=stackLayout;horizontal=1;startSize=30;horizontalStack=0;resizeParent=1;resizeParentMax=0;resizeLast=0;collapsible=1;marginBottom=0;whiteSpace=wrap;html=1;strokeColor=#909090;fontColor=#1A1A1A;fillColor=#F5AB50;rounded=1;" vertex="1" parent="1">
          <mxGeometry x="540" y="230" width="140" height="210" as="geometry" />
        </mxCell>
        <mxCell id="V9Rv2FVIS_NpuzhTLpX6-2" value="AuthorID" style="text;strokeColor=none;fillColor=none;align=left;verticalAlign=middle;spacingLeft=4;spacingRight=4;overflow=hidden;points=[[0,0.5],[1,0.5]];portConstraint=eastwest;rotatable=0;whiteSpace=wrap;html=1;fontColor=#1A1A1A;rounded=1;" vertex="1" parent="V9Rv2FVIS_NpuzhTLpX6-1">
          <mxGeometry y="30" width="140" height="30" as="geometry" />
        </mxCell>
        <mxCell id="V9Rv2FVIS_NpuzhTLpX6-3" value="FirstName" style="text;strokeColor=none;fillColor=none;align=left;verticalAlign=middle;spacingLeft=4;spacingRight=4;overflow=hidden;points=[[0,0.5],[1,0.5]];portConstraint=eastwest;rotatable=0;whiteSpace=wrap;html=1;fontColor=#1A1A1A;rounded=1;" vertex="1" parent="V9Rv2FVIS_NpuzhTLpX6-1">
          <mxGeometry y="60" width="140" height="30" as="geometry" />
        </mxCell>
        <mxCell id="V9Rv2FVIS_NpuzhTLpX6-5" value="LastName" style="text;strokeColor=none;fillColor=none;align=left;verticalAlign=middle;spacingLeft=4;spacingRight=4;overflow=hidden;points=[[0,0.5],[1,0.5]];portConstraint=eastwest;rotatable=0;whiteSpace=wrap;html=1;fontColor=#1A1A1A;rounded=1;" vertex="1" parent="V9Rv2FVIS_NpuzhTLpX6-1">
          <mxGeometry y="90" width="140" height="30" as="geometry" />
        </mxCell>
        <mxCell id="V9Rv2FVIS_NpuzhTLpX6-6" value="Biography" style="text;strokeColor=none;fillColor=none;align=left;verticalAlign=middle;spacingLeft=4;spacingRight=4;overflow=hidden;points=[[0,0.5],[1,0.5]];portConstraint=eastwest;rotatable=0;whiteSpace=wrap;html=1;fontColor=#1A1A1A;rounded=1;" vertex="1" parent="V9Rv2FVIS_NpuzhTLpX6-1">
          <mxGeometry y="120" width="140" height="30" as="geometry" />
        </mxCell>
        <mxCell id="V9Rv2FVIS_NpuzhTLpX6-7" value="DateOfBirth" style="text;strokeColor=none;fillColor=none;align=left;verticalAlign=middle;spacingLeft=4;spacingRight=4;overflow=hidden;points=[[0,0.5],[1,0.5]];portConstraint=eastwest;rotatable=0;whiteSpace=wrap;html=1;fontColor=#1A1A1A;rounded=1;" vertex="1" parent="V9Rv2FVIS_NpuzhTLpX6-1">
          <mxGeometry y="150" width="140" height="30" as="geometry" />
        </mxCell>
        <mxCell id="V9Rv2FVIS_NpuzhTLpX6-8" value="DateOfDeath" style="text;strokeColor=none;fillColor=none;align=left;verticalAlign=middle;spacingLeft=4;spacingRight=4;overflow=hidden;points=[[0,0.5],[1,0.5]];portConstraint=eastwest;rotatable=0;whiteSpace=wrap;html=1;fontColor=#1A1A1A;rounded=1;" vertex="1" parent="V9Rv2FVIS_NpuzhTLpX6-1">
          <mxGeometry y="180" width="140" height="30" as="geometry" />
        </mxCell>
        <mxCell id="V9Rv2FVIS_NpuzhTLpX6-9" value="Publishers" style="swimlane;fontStyle=0;childLayout=stackLayout;horizontal=1;startSize=30;horizontalStack=0;resizeParent=1;resizeParentMax=0;resizeLast=0;collapsible=1;marginBottom=0;whiteSpace=wrap;html=1;strokeColor=#909090;fontColor=#1A1A1A;fillColor=#F5AB50;rounded=1;" vertex="1" parent="1">
          <mxGeometry x="120" y="110" width="140" height="180" as="geometry" />
        </mxCell>
        <mxCell id="V9Rv2FVIS_NpuzhTLpX6-10" value="PublisherID" style="text;strokeColor=none;fillColor=none;align=left;verticalAlign=middle;spacingLeft=4;spacingRight=4;overflow=hidden;points=[[0,0.5],[1,0.5]];portConstraint=eastwest;rotatable=0;whiteSpace=wrap;html=1;fontColor=#1A1A1A;rounded=1;" vertex="1" parent="V9Rv2FVIS_NpuzhTLpX6-9">
          <mxGeometry y="30" width="140" height="30" as="geometry" />
        </mxCell>
        <mxCell id="V9Rv2FVIS_NpuzhTLpX6-11" value="PublisherName" style="text;strokeColor=none;fillColor=none;align=left;verticalAlign=middle;spacingLeft=4;spacingRight=4;overflow=hidden;points=[[0,0.5],[1,0.5]];portConstraint=eastwest;rotatable=0;whiteSpace=wrap;html=1;fontColor=#1A1A1A;rounded=1;" vertex="1" parent="V9Rv2FVIS_NpuzhTLpX6-9">
          <mxGeometry y="60" width="140" height="30" as="geometry" />
        </mxCell>
        <mxCell id="V9Rv2FVIS_NpuzhTLpX6-12" value="Address" style="text;strokeColor=none;fillColor=none;align=left;verticalAlign=middle;spacingLeft=4;spacingRight=4;overflow=hidden;points=[[0,0.5],[1,0.5]];portConstraint=eastwest;rotatable=0;whiteSpace=wrap;html=1;fontColor=#1A1A1A;rounded=1;" vertex="1" parent="V9Rv2FVIS_NpuzhTLpX6-9">
          <mxGeometry y="90" width="140" height="30" as="geometry" />
        </mxCell>
        <mxCell id="V9Rv2FVIS_NpuzhTLpX6-13" value="PhoneNumber" style="text;strokeColor=none;fillColor=none;align=left;verticalAlign=middle;spacingLeft=4;spacingRight=4;overflow=hidden;points=[[0,0.5],[1,0.5]];portConstraint=eastwest;rotatable=0;whiteSpace=wrap;html=1;fontColor=#1A1A1A;rounded=1;" vertex="1" parent="V9Rv2FVIS_NpuzhTLpX6-9">
          <mxGeometry y="120" width="140" height="30" as="geometry" />
        </mxCell>
        <mxCell id="V9Rv2FVIS_NpuzhTLpX6-14" value="Email" style="text;strokeColor=none;fillColor=none;align=left;verticalAlign=middle;spacingLeft=4;spacingRight=4;overflow=hidden;points=[[0,0.5],[1,0.5]];portConstraint=eastwest;rotatable=0;whiteSpace=wrap;html=1;fontColor=#1A1A1A;rounded=1;" vertex="1" parent="V9Rv2FVIS_NpuzhTLpX6-9">
          <mxGeometry y="150" width="140" height="30" as="geometry" />
        </mxCell>
        <mxCell id="V9Rv2FVIS_NpuzhTLpX6-16" value="BookCategories" style="swimlane;fontStyle=0;childLayout=stackLayout;horizontal=1;startSize=30;horizontalStack=0;resizeParent=1;resizeParentMax=0;resizeLast=0;collapsible=1;marginBottom=0;whiteSpace=wrap;html=1;strokeColor=#909090;fontColor=#1A1A1A;fillColor=#F5AB50;rounded=1;" vertex="1" parent="1">
          <mxGeometry x="110" y="340" width="140" height="120" as="geometry" />
        </mxCell>
        <mxCell id="V9Rv2FVIS_NpuzhTLpX6-17" value="CategoryID" style="text;strokeColor=none;fillColor=none;align=left;verticalAlign=middle;spacingLeft=4;spacingRight=4;overflow=hidden;points=[[0,0.5],[1,0.5]];portConstraint=eastwest;rotatable=0;whiteSpace=wrap;html=1;fontColor=#1A1A1A;rounded=1;" vertex="1" parent="V9Rv2FVIS_NpuzhTLpX6-16">
          <mxGeometry y="30" width="140" height="30" as="geometry" />
        </mxCell>
        <mxCell id="V9Rv2FVIS_NpuzhTLpX6-18" value="CategoryName" style="text;strokeColor=none;fillColor=none;align=left;verticalAlign=middle;spacingLeft=4;spacingRight=4;overflow=hidden;points=[[0,0.5],[1,0.5]];portConstraint=eastwest;rotatable=0;whiteSpace=wrap;html=1;fontColor=#1A1A1A;rounded=1;" vertex="1" parent="V9Rv2FVIS_NpuzhTLpX6-16">
          <mxGeometry y="60" width="140" height="30" as="geometry" />
        </mxCell>
        <mxCell id="V9Rv2FVIS_NpuzhTLpX6-19" value="Description" style="text;strokeColor=none;fillColor=none;align=left;verticalAlign=middle;spacingLeft=4;spacingRight=4;overflow=hidden;points=[[0,0.5],[1,0.5]];portConstraint=eastwest;rotatable=0;whiteSpace=wrap;html=1;fontColor=#1A1A1A;rounded=1;" vertex="1" parent="V9Rv2FVIS_NpuzhTLpX6-16">
          <mxGeometry y="90" width="140" height="30" as="geometry" />
        </mxCell>
        <mxCell id="V9Rv2FVIS_NpuzhTLpX6-22" value="Books" style="swimlane;fontStyle=0;childLayout=stackLayout;horizontal=1;startSize=30;horizontalStack=0;resizeParent=1;resizeParentMax=0;resizeLast=0;collapsible=1;marginBottom=0;whiteSpace=wrap;html=1;strokeColor=#909090;fontColor=#1A1A1A;fillColor=#F5AB50;rounded=1;" vertex="1" parent="1">
          <mxGeometry x="330" y="110" width="140" height="330" as="geometry" />
        </mxCell>
        <mxCell id="V9Rv2FVIS_NpuzhTLpX6-23" value="BookID" style="text;strokeColor=none;fillColor=none;align=left;verticalAlign=middle;spacingLeft=4;spacingRight=4;overflow=hidden;points=[[0,0.5],[1,0.5]];portConstraint=eastwest;rotatable=0;whiteSpace=wrap;html=1;fontColor=#1A1A1A;rounded=1;" vertex="1" parent="V9Rv2FVIS_NpuzhTLpX6-22">
          <mxGeometry y="30" width="140" height="30" as="geometry" />
        </mxCell>
        <mxCell id="V9Rv2FVIS_NpuzhTLpX6-24" value="Title" style="text;strokeColor=none;fillColor=none;align=left;verticalAlign=middle;spacingLeft=4;spacingRight=4;overflow=hidden;points=[[0,0.5],[1,0.5]];portConstraint=eastwest;rotatable=0;whiteSpace=wrap;html=1;fontColor=#1A1A1A;rounded=1;" vertex="1" parent="V9Rv2FVIS_NpuzhTLpX6-22">
          <mxGeometry y="60" width="140" height="30" as="geometry" />
        </mxCell>
        <mxCell id="V9Rv2FVIS_NpuzhTLpX6-25" value="ISBN" style="text;strokeColor=none;fillColor=none;align=left;verticalAlign=middle;spacingLeft=4;spacingRight=4;overflow=hidden;points=[[0,0.5],[1,0.5]];portConstraint=eastwest;rotatable=0;whiteSpace=wrap;html=1;fontColor=#1A1A1A;rounded=1;" vertex="1" parent="V9Rv2FVIS_NpuzhTLpX6-22">
          <mxGeometry y="90" width="140" height="30" as="geometry" />
        </mxCell>
        <mxCell id="V9Rv2FVIS_NpuzhTLpX6-26" value="PublicationYear" style="text;strokeColor=none;fillColor=none;align=left;verticalAlign=middle;spacingLeft=4;spacingRight=4;overflow=hidden;points=[[0,0.5],[1,0.5]];portConstraint=eastwest;rotatable=0;whiteSpace=wrap;html=1;fontColor=#1A1A1A;rounded=1;" vertex="1" parent="V9Rv2FVIS_NpuzhTLpX6-22">
          <mxGeometry y="120" width="140" height="30" as="geometry" />
        </mxCell>
        <mxCell id="V9Rv2FVIS_NpuzhTLpX6-27" value="Edition" style="text;strokeColor=none;fillColor=none;align=left;verticalAlign=middle;spacingLeft=4;spacingRight=4;overflow=hidden;points=[[0,0.5],[1,0.5]];portConstraint=eastwest;rotatable=0;whiteSpace=wrap;html=1;fontColor=#1A1A1A;rounded=1;" vertex="1" parent="V9Rv2FVIS_NpuzhTLpX6-22">
          <mxGeometry y="150" width="140" height="30" as="geometry" />
        </mxCell>
        <mxCell id="V9Rv2FVIS_NpuzhTLpX6-28" value="PublisherID" style="text;strokeColor=none;fillColor=none;align=left;verticalAlign=middle;spacingLeft=4;spacingRight=4;overflow=hidden;points=[[0,0.5],[1,0.5]];portConstraint=eastwest;rotatable=0;whiteSpace=wrap;html=1;fontColor=#1A1A1A;rounded=1;" vertex="1" parent="V9Rv2FVIS_NpuzhTLpX6-22">
          <mxGeometry y="180" width="140" height="30" as="geometry" />
        </mxCell>
        <mxCell id="V9Rv2FVIS_NpuzhTLpX6-30" value="CategoryID" style="text;strokeColor=none;fillColor=none;align=left;verticalAlign=middle;spacingLeft=4;spacingRight=4;overflow=hidden;points=[[0,0.5],[1,0.5]];portConstraint=eastwest;rotatable=0;whiteSpace=wrap;html=1;fontColor=#1A1A1A;rounded=1;" vertex="1" parent="V9Rv2FVIS_NpuzhTLpX6-22">
          <mxGeometry y="210" width="140" height="30" as="geometry" />
        </mxCell>
        <mxCell id="V9Rv2FVIS_NpuzhTLpX6-31" value="TotalCopies" style="text;strokeColor=none;fillColor=none;align=left;verticalAlign=middle;spacingLeft=4;spacingRight=4;overflow=hidden;points=[[0,0.5],[1,0.5]];portConstraint=eastwest;rotatable=0;whiteSpace=wrap;html=1;fontColor=#1A1A1A;rounded=1;" vertex="1" parent="V9Rv2FVIS_NpuzhTLpX6-22">
          <mxGeometry y="240" width="140" height="30" as="geometry" />
        </mxCell>
        <mxCell id="V9Rv2FVIS_NpuzhTLpX6-29" value="AvailableCopies" style="text;strokeColor=none;fillColor=none;align=left;verticalAlign=middle;spacingLeft=4;spacingRight=4;overflow=hidden;points=[[0,0.5],[1,0.5]];portConstraint=eastwest;rotatable=0;whiteSpace=wrap;html=1;fontColor=#1A1A1A;rounded=1;" vertex="1" parent="V9Rv2FVIS_NpuzhTLpX6-22">
          <mxGeometry y="270" width="140" height="30" as="geometry" />
        </mxCell>
        <mxCell id="V9Rv2FVIS_NpuzhTLpX6-32" value="Description" style="text;strokeColor=none;fillColor=none;align=left;verticalAlign=middle;spacingLeft=4;spacingRight=4;overflow=hidden;points=[[0,0.5],[1,0.5]];portConstraint=eastwest;rotatable=0;whiteSpace=wrap;html=1;fontColor=#1A1A1A;rounded=1;" vertex="1" parent="V9Rv2FVIS_NpuzhTLpX6-22">
          <mxGeometry y="300" width="140" height="30" as="geometry" />
        </mxCell>
        <mxCell id="V9Rv2FVIS_NpuzhTLpX6-33" style="edgeStyle=orthogonalEdgeStyle;rounded=1;orthogonalLoop=1;jettySize=auto;html=1;entryX=1;entryY=0.5;entryDx=0;entryDy=0;endSize=8;startSize=8;" edge="1" parent="1" source="V9Rv2FVIS_NpuzhTLpX6-28" target="V9Rv2FVIS_NpuzhTLpX6-10">
          <mxGeometry relative="1" as="geometry">
            <Array as="points">
              <mxPoint x="280" y="305" />
              <mxPoint x="280" y="155" />
            </Array>
          </mxGeometry>
        </mxCell>
        <mxCell id="V9Rv2FVIS_NpuzhTLpX6-34" style="edgeStyle=orthogonalEdgeStyle;rounded=1;orthogonalLoop=1;jettySize=auto;html=1;entryX=1;entryY=0.5;entryDx=0;entryDy=0;endSize=8;startSize=8;" edge="1" parent="1" source="V9Rv2FVIS_NpuzhTLpX6-30" target="V9Rv2FVIS_NpuzhTLpX6-17">
          <mxGeometry relative="1" as="geometry">
            <Array as="points">
              <mxPoint x="280" y="335" />
              <mxPoint x="280" y="385" />
            </Array>
          </mxGeometry>
        </mxCell>
        <mxCell id="V9Rv2FVIS_NpuzhTLpX6-35" value="BookAuthors" style="swimlane;fontStyle=0;childLayout=stackLayout;horizontal=1;startSize=30;horizontalStack=0;resizeParent=1;resizeParentMax=0;resizeLast=0;collapsible=1;marginBottom=0;whiteSpace=wrap;html=1;strokeColor=#909090;fontColor=#1A1A1A;fillColor=#F5AB50;rounded=1;" vertex="1" parent="1">
          <mxGeometry x="540" y="100" width="140" height="90" as="geometry" />
        </mxCell>
        <mxCell id="V9Rv2FVIS_NpuzhTLpX6-36" value="BookID" style="text;strokeColor=none;fillColor=none;align=left;verticalAlign=middle;spacingLeft=4;spacingRight=4;overflow=hidden;points=[[0,0.5],[1,0.5]];portConstraint=eastwest;rotatable=0;whiteSpace=wrap;html=1;fontColor=#1A1A1A;rounded=1;" vertex="1" parent="V9Rv2FVIS_NpuzhTLpX6-35">
          <mxGeometry y="30" width="140" height="30" as="geometry" />
        </mxCell>
        <mxCell id="V9Rv2FVIS_NpuzhTLpX6-37" value="AuthorID" style="text;strokeColor=none;fillColor=none;align=left;verticalAlign=middle;spacingLeft=4;spacingRight=4;overflow=hidden;points=[[0,0.5],[1,0.5]];portConstraint=eastwest;rotatable=0;whiteSpace=wrap;html=1;fontColor=#1A1A1A;rounded=1;" vertex="1" parent="V9Rv2FVIS_NpuzhTLpX6-35">
          <mxGeometry y="60" width="140" height="30" as="geometry" />
        </mxCell>
        <mxCell id="V9Rv2FVIS_NpuzhTLpX6-42" style="edgeStyle=orthogonalEdgeStyle;rounded=1;orthogonalLoop=1;jettySize=auto;html=1;entryX=1;entryY=0.5;entryDx=0;entryDy=0;endSize=8;startSize=8;" edge="1" parent="1" source="V9Rv2FVIS_NpuzhTLpX6-37" target="V9Rv2FVIS_NpuzhTLpX6-3">
          <mxGeometry relative="1" as="geometry">
            <Array as="points">
              <mxPoint x="720" y="185" />
              <mxPoint x="720" y="305" />
            </Array>
          </mxGeometry>
        </mxCell>
        <mxCell id="V9Rv2FVIS_NpuzhTLpX6-44" value="Members" style="swimlane;fontStyle=0;childLayout=stackLayout;horizontal=1;startSize=30;horizontalStack=0;resizeParent=1;resizeParentMax=0;resizeLast=0;collapsible=1;marginBottom=0;whiteSpace=wrap;html=1;strokeColor=#909090;fontColor=#1A1A1A;fillColor=#F5AB50;rounded=1;" vertex="1" parent="1">
          <mxGeometry x="330" y="480" width="140" height="360" as="geometry" />
        </mxCell>
        <mxCell id="V9Rv2FVIS_NpuzhTLpX6-45" value="MemberID" style="text;strokeColor=none;fillColor=none;align=left;verticalAlign=middle;spacingLeft=4;spacingRight=4;overflow=hidden;points=[[0,0.5],[1,0.5]];portConstraint=eastwest;rotatable=0;whiteSpace=wrap;html=1;fontColor=#1A1A1A;rounded=1;" vertex="1" parent="V9Rv2FVIS_NpuzhTLpX6-44">
          <mxGeometry y="30" width="140" height="30" as="geometry" />
        </mxCell>
        <mxCell id="V9Rv2FVIS_NpuzhTLpX6-46" value="NationalCode" style="text;strokeColor=none;fillColor=none;align=left;verticalAlign=middle;spacingLeft=4;spacingRight=4;overflow=hidden;points=[[0,0.5],[1,0.5]];portConstraint=eastwest;rotatable=0;whiteSpace=wrap;html=1;fontColor=#1A1A1A;rounded=1;" vertex="1" parent="V9Rv2FVIS_NpuzhTLpX6-44">
          <mxGeometry y="60" width="140" height="30" as="geometry" />
        </mxCell>
        <mxCell id="V9Rv2FVIS_NpuzhTLpX6-47" value="FirstName" style="text;strokeColor=none;fillColor=none;align=left;verticalAlign=middle;spacingLeft=4;spacingRight=4;overflow=hidden;points=[[0,0.5],[1,0.5]];portConstraint=eastwest;rotatable=0;whiteSpace=wrap;html=1;fontColor=#1A1A1A;rounded=1;" vertex="1" parent="V9Rv2FVIS_NpuzhTLpX6-44">
          <mxGeometry y="90" width="140" height="30" as="geometry" />
        </mxCell>
        <mxCell id="V9Rv2FVIS_NpuzhTLpX6-48" value="LastName" style="text;strokeColor=none;fillColor=none;align=left;verticalAlign=middle;spacingLeft=4;spacingRight=4;overflow=hidden;points=[[0,0.5],[1,0.5]];portConstraint=eastwest;rotatable=0;whiteSpace=wrap;html=1;fontColor=#1A1A1A;rounded=1;" vertex="1" parent="V9Rv2FVIS_NpuzhTLpX6-44">
          <mxGeometry y="120" width="140" height="30" as="geometry" />
        </mxCell>
        <mxCell id="V9Rv2FVIS_NpuzhTLpX6-49" value="MemberType" style="text;strokeColor=none;fillColor=none;align=left;verticalAlign=middle;spacingLeft=4;spacingRight=4;overflow=hidden;points=[[0,0.5],[1,0.5]];portConstraint=eastwest;rotatable=0;whiteSpace=wrap;html=1;fontColor=#1A1A1A;rounded=1;" vertex="1" parent="V9Rv2FVIS_NpuzhTLpX6-44">
          <mxGeometry y="150" width="140" height="30" as="geometry" />
        </mxCell>
        <mxCell id="V9Rv2FVIS_NpuzhTLpX6-50" value="ContactEmail" style="text;strokeColor=none;fillColor=none;align=left;verticalAlign=middle;spacingLeft=4;spacingRight=4;overflow=hidden;points=[[0,0.5],[1,0.5]];portConstraint=eastwest;rotatable=0;whiteSpace=wrap;html=1;fontColor=#1A1A1A;rounded=1;" vertex="1" parent="V9Rv2FVIS_NpuzhTLpX6-44">
          <mxGeometry y="180" width="140" height="30" as="geometry" />
        </mxCell>
        <mxCell id="V9Rv2FVIS_NpuzhTLpX6-51" value="ContactPhone" style="text;strokeColor=none;fillColor=none;align=left;verticalAlign=middle;spacingLeft=4;spacingRight=4;overflow=hidden;points=[[0,0.5],[1,0.5]];portConstraint=eastwest;rotatable=0;whiteSpace=wrap;html=1;fontColor=#1A1A1A;rounded=1;" vertex="1" parent="V9Rv2FVIS_NpuzhTLpX6-44">
          <mxGeometry y="210" width="140" height="30" as="geometry" />
        </mxCell>
        <mxCell id="V9Rv2FVIS_NpuzhTLpX6-52" value="JoinDate" style="text;strokeColor=none;fillColor=none;align=left;verticalAlign=middle;spacingLeft=4;spacingRight=4;overflow=hidden;points=[[0,0.5],[1,0.5]];portConstraint=eastwest;rotatable=0;whiteSpace=wrap;html=1;fontColor=#1A1A1A;rounded=1;" vertex="1" parent="V9Rv2FVIS_NpuzhTLpX6-44">
          <mxGeometry y="240" width="140" height="30" as="geometry" />
        </mxCell>
        <mxCell id="V9Rv2FVIS_NpuzhTLpX6-53" value="Status" style="text;strokeColor=none;fillColor=none;align=left;verticalAlign=middle;spacingLeft=4;spacingRight=4;overflow=hidden;points=[[0,0.5],[1,0.5]];portConstraint=eastwest;rotatable=0;whiteSpace=wrap;html=1;fontColor=#1A1A1A;rounded=1;" vertex="1" parent="V9Rv2FVIS_NpuzhTLpX6-44">
          <mxGeometry y="270" width="140" height="30" as="geometry" />
        </mxCell>
        <mxCell id="V9Rv2FVIS_NpuzhTLpX6-54" value="Education_StudentID" style="text;strokeColor=none;fillColor=none;align=left;verticalAlign=middle;spacingLeft=4;spacingRight=4;overflow=hidden;points=[[0,0.5],[1,0.5]];portConstraint=eastwest;rotatable=0;whiteSpace=wrap;html=1;fontColor=#1A1A1A;rounded=1;" vertex="1" parent="V9Rv2FVIS_NpuzhTLpX6-44">
          <mxGeometry y="300" width="140" height="30" as="geometry" />
        </mxCell>
        <mxCell id="V9Rv2FVIS_NpuzhTLpX6-55" value="Education_ProfessorID" style="text;strokeColor=none;fillColor=none;align=left;verticalAlign=middle;spacingLeft=4;spacingRight=4;overflow=hidden;points=[[0,0.5],[1,0.5]];portConstraint=eastwest;rotatable=0;whiteSpace=wrap;html=1;fontColor=#1A1A1A;rounded=1;" vertex="1" parent="V9Rv2FVIS_NpuzhTLpX6-44">
          <mxGeometry y="330" width="140" height="30" as="geometry" />
        </mxCell>
        <mxCell id="V9Rv2FVIS_NpuzhTLpX6-56" value="Deprtments" style="swimlane;fontStyle=0;childLayout=stackLayout;horizontal=1;startSize=20;horizontalStack=0;resizeParent=1;resizeParentMax=0;resizeLast=0;collapsible=1;marginBottom=0;whiteSpace=wrap;html=1;labelBackgroundColor=none;rounded=1;fillColor=#F5AB50;strokeColor=#909090;fontColor=#1A1A1A;" vertex="1" parent="1">
          <mxGeometry x="-670" y="410" width="140" height="110" as="geometry">
            <mxRectangle x="100" y="130" width="60" height="30" as="alternateBounds" />
          </mxGeometry>
        </mxCell>
        <mxCell id="V9Rv2FVIS_NpuzhTLpX6-57" value="DepartmentID" style="text;strokeColor=none;fillColor=none;align=left;verticalAlign=middle;spacingLeft=4;spacingRight=4;overflow=hidden;points=[[0,0.5],[1,0.5]];portConstraint=eastwest;rotatable=0;whiteSpace=wrap;html=1;labelBackgroundColor=none;rounded=1;fontColor=#1A1A1A;" vertex="1" parent="V9Rv2FVIS_NpuzhTLpX6-56">
          <mxGeometry y="20" width="140" height="30" as="geometry" />
        </mxCell>
        <mxCell id="V9Rv2FVIS_NpuzhTLpX6-58" value="DepartmentName" style="text;strokeColor=none;fillColor=none;align=left;verticalAlign=middle;spacingLeft=4;spacingRight=4;overflow=hidden;points=[[0,0.5],[1,0.5]];portConstraint=eastwest;rotatable=0;whiteSpace=wrap;html=1;labelBackgroundColor=none;rounded=1;fontColor=#1A1A1A;" vertex="1" parent="V9Rv2FVIS_NpuzhTLpX6-56">
          <mxGeometry y="50" width="140" height="30" as="geometry" />
        </mxCell>
        <mxCell id="V9Rv2FVIS_NpuzhTLpX6-59" value="HeadOfDepartmentID" style="text;strokeColor=none;fillColor=none;align=left;verticalAlign=middle;spacingLeft=4;spacingRight=4;overflow=hidden;points=[[0,0.5],[1,0.5]];portConstraint=eastwest;rotatable=0;whiteSpace=wrap;html=1;labelBackgroundColor=none;rounded=1;fontColor=#1A1A1A;" vertex="1" parent="V9Rv2FVIS_NpuzhTLpX6-56">
          <mxGeometry y="80" width="140" height="30" as="geometry" />
        </mxCell>
        <mxCell id="V9Rv2FVIS_NpuzhTLpX6-60" value="Students" style="swimlane;fontStyle=0;childLayout=stackLayout;horizontal=1;startSize=20;horizontalStack=0;resizeParent=1;resizeParentMax=0;resizeLast=0;collapsible=1;marginBottom=0;whiteSpace=wrap;html=1;labelBackgroundColor=none;rounded=1;fillColor=#F5AB50;strokeColor=#909090;fontColor=#1A1A1A;" vertex="1" parent="1">
          <mxGeometry x="-460" y="400" width="140" height="380" as="geometry">
            <mxRectangle x="100" y="130" width="60" height="30" as="alternateBounds" />
          </mxGeometry>
        </mxCell>
        <mxCell id="V9Rv2FVIS_NpuzhTLpX6-61" value="StudentID" style="text;strokeColor=none;fillColor=none;align=left;verticalAlign=middle;spacingLeft=4;spacingRight=4;overflow=hidden;points=[[0,0.5],[1,0.5]];portConstraint=eastwest;rotatable=0;whiteSpace=wrap;html=1;labelBackgroundColor=none;rounded=1;fontColor=#1A1A1A;" vertex="1" parent="V9Rv2FVIS_NpuzhTLpX6-60">
          <mxGeometry y="20" width="140" height="30" as="geometry" />
        </mxCell>
        <mxCell id="V9Rv2FVIS_NpuzhTLpX6-62" value="NationalCode" style="text;strokeColor=none;fillColor=none;align=left;verticalAlign=middle;spacingLeft=4;spacingRight=4;overflow=hidden;points=[[0,0.5],[1,0.5]];portConstraint=eastwest;rotatable=0;whiteSpace=wrap;html=1;labelBackgroundColor=none;rounded=1;fontColor=#1A1A1A;" vertex="1" parent="V9Rv2FVIS_NpuzhTLpX6-60">
          <mxGeometry y="50" width="140" height="30" as="geometry" />
        </mxCell>
        <mxCell id="V9Rv2FVIS_NpuzhTLpX6-63" value="FirstName" style="text;strokeColor=none;fillColor=none;align=left;verticalAlign=middle;spacingLeft=4;spacingRight=4;overflow=hidden;points=[[0,0.5],[1,0.5]];portConstraint=eastwest;rotatable=0;whiteSpace=wrap;html=1;labelBackgroundColor=none;rounded=1;fontColor=#1A1A1A;" vertex="1" parent="V9Rv2FVIS_NpuzhTLpX6-60">
          <mxGeometry y="80" width="140" height="30" as="geometry" />
        </mxCell>
        <mxCell id="V9Rv2FVIS_NpuzhTLpX6-64" value="LastName" style="text;strokeColor=none;fillColor=none;align=left;verticalAlign=middle;spacingLeft=4;spacingRight=4;overflow=hidden;points=[[0,0.5],[1,0.5]];portConstraint=eastwest;rotatable=0;whiteSpace=wrap;html=1;labelBackgroundColor=none;rounded=1;fontColor=#1A1A1A;" vertex="1" parent="V9Rv2FVIS_NpuzhTLpX6-60">
          <mxGeometry y="110" width="140" height="30" as="geometry" />
        </mxCell>
        <mxCell id="V9Rv2FVIS_NpuzhTLpX6-65" value="DateOfBirth" style="text;strokeColor=none;fillColor=none;align=left;verticalAlign=middle;spacingLeft=4;spacingRight=4;overflow=hidden;points=[[0,0.5],[1,0.5]];portConstraint=eastwest;rotatable=0;whiteSpace=wrap;html=1;labelBackgroundColor=none;rounded=1;fontColor=#1A1A1A;" vertex="1" parent="V9Rv2FVIS_NpuzhTLpX6-60">
          <mxGeometry y="140" width="140" height="30" as="geometry" />
        </mxCell>
        <mxCell id="V9Rv2FVIS_NpuzhTLpX6-66" value="Email" style="text;strokeColor=none;fillColor=none;align=left;verticalAlign=middle;spacingLeft=4;spacingRight=4;overflow=hidden;points=[[0,0.5],[1,0.5]];portConstraint=eastwest;rotatable=0;whiteSpace=wrap;html=1;labelBackgroundColor=none;rounded=1;fontColor=#1A1A1A;" vertex="1" parent="V9Rv2FVIS_NpuzhTLpX6-60">
          <mxGeometry y="170" width="140" height="30" as="geometry" />
        </mxCell>
        <mxCell id="V9Rv2FVIS_NpuzhTLpX6-67" value="PhoneNumber" style="text;strokeColor=none;fillColor=none;align=left;verticalAlign=middle;spacingLeft=4;spacingRight=4;overflow=hidden;points=[[0,0.5],[1,0.5]];portConstraint=eastwest;rotatable=0;whiteSpace=wrap;html=1;labelBackgroundColor=none;rounded=1;fontColor=#1A1A1A;" vertex="1" parent="V9Rv2FVIS_NpuzhTLpX6-60">
          <mxGeometry y="200" width="140" height="30" as="geometry" />
        </mxCell>
        <mxCell id="V9Rv2FVIS_NpuzhTLpX6-68" value="EnrollmentDate" style="text;strokeColor=none;fillColor=none;align=left;verticalAlign=middle;spacingLeft=4;spacingRight=4;overflow=hidden;points=[[0,0.5],[1,0.5]];portConstraint=eastwest;rotatable=0;whiteSpace=wrap;html=1;labelBackgroundColor=none;rounded=1;fontColor=#1A1A1A;" vertex="1" parent="V9Rv2FVIS_NpuzhTLpX6-60">
          <mxGeometry y="230" width="140" height="30" as="geometry" />
        </mxCell>
        <mxCell id="V9Rv2FVIS_NpuzhTLpX6-69" value="DepartmentID" style="text;strokeColor=none;fillColor=none;align=left;verticalAlign=middle;spacingLeft=4;spacingRight=4;overflow=hidden;points=[[0,0.5],[1,0.5]];portConstraint=eastwest;rotatable=0;whiteSpace=wrap;html=1;labelBackgroundColor=none;rounded=1;fontColor=#1A1A1A;" vertex="1" parent="V9Rv2FVIS_NpuzhTLpX6-60">
          <mxGeometry y="260" width="140" height="30" as="geometry" />
        </mxCell>
        <mxCell id="V9Rv2FVIS_NpuzhTLpX6-70" value="MajorID" style="text;strokeColor=none;fillColor=none;align=left;verticalAlign=middle;spacingLeft=4;spacingRight=4;overflow=hidden;points=[[0,0.5],[1,0.5]];portConstraint=eastwest;rotatable=0;whiteSpace=wrap;html=1;labelBackgroundColor=none;rounded=1;fontColor=#1A1A1A;" vertex="1" parent="V9Rv2FVIS_NpuzhTLpX6-60">
          <mxGeometry y="290" width="140" height="30" as="geometry" />
        </mxCell>
        <mxCell id="V9Rv2FVIS_NpuzhTLpX6-71" value="Status" style="text;strokeColor=none;fillColor=none;align=left;verticalAlign=middle;spacingLeft=4;spacingRight=4;overflow=hidden;points=[[0,0.5],[1,0.5]];portConstraint=eastwest;rotatable=0;whiteSpace=wrap;html=1;labelBackgroundColor=none;rounded=1;fontColor=#1A1A1A;" vertex="1" parent="V9Rv2FVIS_NpuzhTLpX6-60">
          <mxGeometry y="320" width="140" height="30" as="geometry" />
        </mxCell>
        <mxCell id="V9Rv2FVIS_NpuzhTLpX6-72" value="AddressID" style="text;strokeColor=none;fillColor=none;align=left;verticalAlign=middle;spacingLeft=4;spacingRight=4;overflow=hidden;points=[[0,0.5],[1,0.5]];portConstraint=eastwest;rotatable=0;whiteSpace=wrap;html=1;labelBackgroundColor=none;rounded=1;fontColor=#1A1A1A;" vertex="1" parent="V9Rv2FVIS_NpuzhTLpX6-60">
          <mxGeometry y="350" width="140" height="30" as="geometry" />
        </mxCell>
        <mxCell id="V9Rv2FVIS_NpuzhTLpX6-73" value="" style="edgeStyle=elbowEdgeStyle;elbow=horizontal;endArrow=classic;html=1;curved=0;rounded=1;endSize=8;startSize=8;fontSize=12;entryX=1.017;entryY=0.814;entryDx=0;entryDy=0;entryPerimeter=0;labelBackgroundColor=none;fontColor=default;strokeColor=#182E3E;" edge="1" parent="1" source="V9Rv2FVIS_NpuzhTLpX6-69" target="V9Rv2FVIS_NpuzhTLpX6-57">
          <mxGeometry width="50" height="50" relative="1" as="geometry">
            <mxPoint x="-530.7106781186548" y="755" as="sourcePoint" />
            <mxPoint x="-840.7106781186548" y="645" as="targetPoint" />
            <Array as="points">
              <mxPoint x="-480" y="580" />
            </Array>
          </mxGeometry>
        </mxCell>
        <mxCell id="V9Rv2FVIS_NpuzhTLpX6-74" value="Professors" style="swimlane;fontStyle=0;childLayout=stackLayout;horizontal=1;startSize=20;horizontalStack=0;resizeParent=1;resizeParentMax=0;resizeLast=0;collapsible=1;marginBottom=0;whiteSpace=wrap;html=1;labelBackgroundColor=none;rounded=1;fillColor=#F5AB50;strokeColor=#909090;fontColor=#1A1A1A;" vertex="1" parent="1">
          <mxGeometry x="-670" y="530" width="140" height="260" as="geometry">
            <mxRectangle x="100" y="130" width="60" height="30" as="alternateBounds" />
          </mxGeometry>
        </mxCell>
        <mxCell id="V9Rv2FVIS_NpuzhTLpX6-75" value="ProfessorID" style="text;strokeColor=none;fillColor=none;align=left;verticalAlign=middle;spacingLeft=4;spacingRight=4;overflow=hidden;points=[[0,0.5],[1,0.5]];portConstraint=eastwest;rotatable=0;whiteSpace=wrap;html=1;labelBackgroundColor=none;rounded=1;fontColor=#1A1A1A;" vertex="1" parent="V9Rv2FVIS_NpuzhTLpX6-74">
          <mxGeometry y="20" width="140" height="30" as="geometry" />
        </mxCell>
        <mxCell id="V9Rv2FVIS_NpuzhTLpX6-76" value="FirstName" style="text;strokeColor=none;fillColor=none;align=left;verticalAlign=middle;spacingLeft=4;spacingRight=4;overflow=hidden;points=[[0,0.5],[1,0.5]];portConstraint=eastwest;rotatable=0;whiteSpace=wrap;html=1;labelBackgroundColor=none;rounded=1;fontColor=#1A1A1A;" vertex="1" parent="V9Rv2FVIS_NpuzhTLpX6-74">
          <mxGeometry y="50" width="140" height="30" as="geometry" />
        </mxCell>
        <mxCell id="V9Rv2FVIS_NpuzhTLpX6-77" value="LastName" style="text;strokeColor=none;fillColor=none;align=left;verticalAlign=middle;spacingLeft=4;spacingRight=4;overflow=hidden;points=[[0,0.5],[1,0.5]];portConstraint=eastwest;rotatable=0;whiteSpace=wrap;html=1;labelBackgroundColor=none;rounded=1;fontColor=#1A1A1A;" vertex="1" parent="V9Rv2FVIS_NpuzhTLpX6-74">
          <mxGeometry y="80" width="140" height="30" as="geometry" />
        </mxCell>
        <mxCell id="V9Rv2FVIS_NpuzhTLpX6-78" value="Email" style="text;strokeColor=none;fillColor=none;align=left;verticalAlign=middle;spacingLeft=4;spacingRight=4;overflow=hidden;points=[[0,0.5],[1,0.5]];portConstraint=eastwest;rotatable=0;whiteSpace=wrap;html=1;labelBackgroundColor=none;rounded=1;fontColor=#1A1A1A;" vertex="1" parent="V9Rv2FVIS_NpuzhTLpX6-74">
          <mxGeometry y="110" width="140" height="30" as="geometry" />
        </mxCell>
        <mxCell id="V9Rv2FVIS_NpuzhTLpX6-79" value="DepartmentID" style="text;strokeColor=none;fillColor=none;align=left;verticalAlign=middle;spacingLeft=4;spacingRight=4;overflow=hidden;points=[[0,0.5],[1,0.5]];portConstraint=eastwest;rotatable=0;whiteSpace=wrap;html=1;labelBackgroundColor=none;rounded=1;fontColor=#1A1A1A;" vertex="1" parent="V9Rv2FVIS_NpuzhTLpX6-74">
          <mxGeometry y="140" width="140" height="30" as="geometry" />
        </mxCell>
        <mxCell id="V9Rv2FVIS_NpuzhTLpX6-80" value="Rank" style="text;strokeColor=none;fillColor=none;align=left;verticalAlign=middle;spacingLeft=4;spacingRight=4;overflow=hidden;points=[[0,0.5],[1,0.5]];portConstraint=eastwest;rotatable=0;whiteSpace=wrap;html=1;labelBackgroundColor=none;rounded=1;fontColor=#1A1A1A;" vertex="1" parent="V9Rv2FVIS_NpuzhTLpX6-74">
          <mxGeometry y="170" width="140" height="30" as="geometry" />
        </mxCell>
        <mxCell id="V9Rv2FVIS_NpuzhTLpX6-81" value="HireDate" style="text;strokeColor=none;fillColor=none;align=left;verticalAlign=middle;spacingLeft=4;spacingRight=4;overflow=hidden;points=[[0,0.5],[1,0.5]];portConstraint=eastwest;rotatable=0;whiteSpace=wrap;html=1;labelBackgroundColor=none;rounded=1;fontColor=#1A1A1A;" vertex="1" parent="V9Rv2FVIS_NpuzhTLpX6-74">
          <mxGeometry y="200" width="140" height="30" as="geometry" />
        </mxCell>
        <mxCell id="V9Rv2FVIS_NpuzhTLpX6-82" value="AddressID" style="text;strokeColor=none;fillColor=none;align=left;verticalAlign=middle;spacingLeft=4;spacingRight=4;overflow=hidden;points=[[0,0.5],[1,0.5]];portConstraint=eastwest;rotatable=0;whiteSpace=wrap;html=1;labelBackgroundColor=none;rounded=1;fontColor=#1A1A1A;" vertex="1" parent="V9Rv2FVIS_NpuzhTLpX6-74">
          <mxGeometry y="230" width="140" height="30" as="geometry" />
        </mxCell>
        <mxCell id="V9Rv2FVIS_NpuzhTLpX6-83" value="Courses" style="swimlane;fontStyle=0;childLayout=stackLayout;horizontal=1;startSize=20;horizontalStack=0;resizeParent=1;resizeParentMax=0;resizeLast=0;collapsible=1;marginBottom=0;whiteSpace=wrap;html=1;labelBackgroundColor=none;rounded=1;fillColor=#F5AB50;strokeColor=#909090;fontColor=#1A1A1A;" vertex="1" parent="1">
          <mxGeometry x="-380" y="140" width="140" height="230" as="geometry">
            <mxRectangle x="100" y="130" width="60" height="30" as="alternateBounds" />
          </mxGeometry>
        </mxCell>
        <mxCell id="V9Rv2FVIS_NpuzhTLpX6-84" value="CourseID" style="text;strokeColor=none;fillColor=none;align=left;verticalAlign=middle;spacingLeft=4;spacingRight=4;overflow=hidden;points=[[0,0.5],[1,0.5]];portConstraint=eastwest;rotatable=0;whiteSpace=wrap;html=1;labelBackgroundColor=none;rounded=1;fontColor=#1A1A1A;" vertex="1" parent="V9Rv2FVIS_NpuzhTLpX6-83">
          <mxGeometry y="20" width="140" height="30" as="geometry" />
        </mxCell>
        <mxCell id="V9Rv2FVIS_NpuzhTLpX6-85" value="CourseCode" style="text;strokeColor=none;fillColor=none;align=left;verticalAlign=middle;spacingLeft=4;spacingRight=4;overflow=hidden;points=[[0,0.5],[1,0.5]];portConstraint=eastwest;rotatable=0;whiteSpace=wrap;html=1;labelBackgroundColor=none;rounded=1;fontColor=#1A1A1A;" vertex="1" parent="V9Rv2FVIS_NpuzhTLpX6-83">
          <mxGeometry y="50" width="140" height="30" as="geometry" />
        </mxCell>
        <mxCell id="V9Rv2FVIS_NpuzhTLpX6-86" value="CourseName" style="text;strokeColor=none;fillColor=none;align=left;verticalAlign=middle;spacingLeft=4;spacingRight=4;overflow=hidden;points=[[0,0.5],[1,0.5]];portConstraint=eastwest;rotatable=0;whiteSpace=wrap;html=1;labelBackgroundColor=none;rounded=1;fontColor=#1A1A1A;" vertex="1" parent="V9Rv2FVIS_NpuzhTLpX6-83">
          <mxGeometry y="80" width="140" height="30" as="geometry" />
        </mxCell>
        <mxCell id="V9Rv2FVIS_NpuzhTLpX6-87" value="Credits" style="text;strokeColor=none;fillColor=none;align=left;verticalAlign=middle;spacingLeft=4;spacingRight=4;overflow=hidden;points=[[0,0.5],[1,0.5]];portConstraint=eastwest;rotatable=0;whiteSpace=wrap;html=1;labelBackgroundColor=none;rounded=1;fontColor=#1A1A1A;" vertex="1" parent="V9Rv2FVIS_NpuzhTLpX6-83">
          <mxGeometry y="110" width="140" height="30" as="geometry" />
        </mxCell>
        <mxCell id="V9Rv2FVIS_NpuzhTLpX6-88" value="DepartmentID" style="text;strokeColor=none;fillColor=none;align=left;verticalAlign=middle;spacingLeft=4;spacingRight=4;overflow=hidden;points=[[0,0.5],[1,0.5]];portConstraint=eastwest;rotatable=0;whiteSpace=wrap;html=1;labelBackgroundColor=none;rounded=1;fontColor=#1A1A1A;" vertex="1" parent="V9Rv2FVIS_NpuzhTLpX6-83">
          <mxGeometry y="140" width="140" height="30" as="geometry" />
        </mxCell>
        <mxCell id="V9Rv2FVIS_NpuzhTLpX6-89" value="Description" style="text;strokeColor=none;fillColor=none;align=left;verticalAlign=middle;spacingLeft=4;spacingRight=4;overflow=hidden;points=[[0,0.5],[1,0.5]];portConstraint=eastwest;rotatable=0;whiteSpace=wrap;html=1;labelBackgroundColor=none;rounded=1;fontColor=#1A1A1A;" vertex="1" parent="V9Rv2FVIS_NpuzhTLpX6-83">
          <mxGeometry y="170" width="140" height="30" as="geometry" />
        </mxCell>
        <mxCell id="V9Rv2FVIS_NpuzhTLpX6-90" value="CategoryID" style="text;strokeColor=none;fillColor=none;align=left;verticalAlign=middle;spacingLeft=4;spacingRight=4;overflow=hidden;points=[[0,0.5],[1,0.5]];portConstraint=eastwest;rotatable=0;whiteSpace=wrap;html=1;labelBackgroundColor=none;rounded=1;fontColor=#1A1A1A;" vertex="1" parent="V9Rv2FVIS_NpuzhTLpX6-83">
          <mxGeometry y="200" width="140" height="30" as="geometry" />
        </mxCell>
        <mxCell id="V9Rv2FVIS_NpuzhTLpX6-91" style="edgeStyle=elbowEdgeStyle;rounded=1;orthogonalLoop=1;jettySize=auto;html=1;fontSize=12;startSize=8;endSize=8;entryX=0;entryY=0.5;entryDx=0;entryDy=0;exitX=0;exitY=0.5;exitDx=0;exitDy=0;labelBackgroundColor=none;fontColor=default;strokeColor=#182E3E;" edge="1" parent="1" source="V9Rv2FVIS_NpuzhTLpX6-59" target="V9Rv2FVIS_NpuzhTLpX6-75">
          <mxGeometry relative="1" as="geometry">
            <mxPoint x="-700" y="504.9999999999999" as="targetPoint" />
            <mxPoint x="-710" y="520" as="sourcePoint" />
            <Array as="points">
              <mxPoint x="-700" y="550" />
            </Array>
          </mxGeometry>
        </mxCell>
        <mxCell id="V9Rv2FVIS_NpuzhTLpX6-92" style="edgeStyle=elbowEdgeStyle;rounded=1;orthogonalLoop=1;jettySize=auto;html=1;entryX=-0.003;entryY=0.845;entryDx=0;entryDy=0;fontSize=12;startSize=8;endSize=8;exitX=0;exitY=0.5;exitDx=0;exitDy=0;entryPerimeter=0;labelBackgroundColor=none;fontColor=default;strokeColor=#182E3E;" edge="1" parent="1" source="V9Rv2FVIS_NpuzhTLpX6-79" target="V9Rv2FVIS_NpuzhTLpX6-57">
          <mxGeometry relative="1" as="geometry">
            <mxPoint x="-729.5294117647059" y="700" as="sourcePoint" />
            <mxPoint x="-730" y="444.9999999999999" as="targetPoint" />
            <Array as="points">
              <mxPoint x="-720" y="580" />
            </Array>
          </mxGeometry>
        </mxCell>
        <mxCell id="V9Rv2FVIS_NpuzhTLpX6-93" style="edgeStyle=elbowEdgeStyle;rounded=1;orthogonalLoop=1;jettySize=auto;html=1;entryX=0.999;entryY=0.297;entryDx=0;entryDy=0;fontSize=12;startSize=8;endSize=8;exitX=0;exitY=0.5;exitDx=0;exitDy=0;labelBackgroundColor=none;fontColor=default;strokeColor=#182E3E;entryPerimeter=0;" edge="1" parent="1" source="V9Rv2FVIS_NpuzhTLpX6-99" target="V9Rv2FVIS_NpuzhTLpX6-75">
          <mxGeometry relative="1" as="geometry">
            <mxPoint x="-480" y="880" as="sourcePoint" />
            <mxPoint x="-520" y="570" as="targetPoint" />
            <Array as="points">
              <mxPoint x="-500" y="940" />
            </Array>
          </mxGeometry>
        </mxCell>
        <mxCell id="V9Rv2FVIS_NpuzhTLpX6-94" style="edgeStyle=elbowEdgeStyle;rounded=1;orthogonalLoop=1;jettySize=auto;html=1;entryX=1;entryY=0.5;entryDx=0;entryDy=0;fontSize=12;startSize=8;endSize=8;exitX=1;exitY=0.5;exitDx=0;exitDy=0;labelBackgroundColor=none;fontColor=default;strokeColor=#182E3E;" edge="1" parent="1" source="V9Rv2FVIS_NpuzhTLpX6-98" target="V9Rv2FVIS_NpuzhTLpX6-84">
          <mxGeometry relative="1" as="geometry">
            <mxPoint x="-160" y="580" as="sourcePoint" />
            <mxPoint x="-160" y="310" as="targetPoint" />
            <Array as="points">
              <mxPoint x="-20" y="560" />
            </Array>
          </mxGeometry>
        </mxCell>
        <mxCell id="V9Rv2FVIS_NpuzhTLpX6-95" style="edgeStyle=elbowEdgeStyle;rounded=1;orthogonalLoop=1;jettySize=auto;html=1;entryX=1.01;entryY=0.218;entryDx=0;entryDy=0;fontSize=12;startSize=8;endSize=8;exitX=0;exitY=0.5;exitDx=0;exitDy=0;entryPerimeter=0;labelBackgroundColor=none;fontColor=default;strokeColor=#182E3E;" edge="1" parent="1" source="V9Rv2FVIS_NpuzhTLpX6-88" target="V9Rv2FVIS_NpuzhTLpX6-57">
          <mxGeometry relative="1" as="geometry">
            <mxPoint x="-306" y="530" as="sourcePoint" />
            <mxPoint x="-306" y="260" as="targetPoint" />
            <Array as="points">
              <mxPoint x="-500" y="450" />
              <mxPoint x="-480" y="340" />
            </Array>
          </mxGeometry>
        </mxCell>
        <mxCell id="V9Rv2FVIS_NpuzhTLpX6-96" value="CourseOfferings" style="swimlane;fontStyle=0;childLayout=stackLayout;horizontal=1;startSize=20;horizontalStack=0;resizeParent=1;resizeParentMax=0;resizeLast=0;collapsible=1;marginBottom=0;whiteSpace=wrap;html=1;labelBackgroundColor=none;rounded=1;fillColor=#F5AB50;strokeColor=#909090;fontColor=#1A1A1A;" vertex="1" parent="1">
          <mxGeometry x="-450" y="830" width="140" height="260" as="geometry">
            <mxRectangle x="100" y="130" width="60" height="30" as="alternateBounds" />
          </mxGeometry>
        </mxCell>
        <mxCell id="V9Rv2FVIS_NpuzhTLpX6-97" value="OfferingID" style="text;strokeColor=none;fillColor=none;align=left;verticalAlign=middle;spacingLeft=4;spacingRight=4;overflow=hidden;points=[[0,0.5],[1,0.5]];portConstraint=eastwest;rotatable=0;whiteSpace=wrap;html=1;labelBackgroundColor=none;rounded=1;fontColor=#1A1A1A;" vertex="1" parent="V9Rv2FVIS_NpuzhTLpX6-96">
          <mxGeometry y="20" width="140" height="30" as="geometry" />
        </mxCell>
        <mxCell id="V9Rv2FVIS_NpuzhTLpX6-98" value="CourseID" style="text;strokeColor=none;fillColor=none;align=left;verticalAlign=middle;spacingLeft=4;spacingRight=4;overflow=hidden;points=[[0,0.5],[1,0.5]];portConstraint=eastwest;rotatable=0;whiteSpace=wrap;html=1;labelBackgroundColor=none;rounded=1;fontColor=#1A1A1A;" vertex="1" parent="V9Rv2FVIS_NpuzhTLpX6-96">
          <mxGeometry y="50" width="140" height="30" as="geometry" />
        </mxCell>
        <mxCell id="V9Rv2FVIS_NpuzhTLpX6-99" value="ProfessorID" style="text;strokeColor=none;fillColor=none;align=left;verticalAlign=middle;spacingLeft=4;spacingRight=4;overflow=hidden;points=[[0,0.5],[1,0.5]];portConstraint=eastwest;rotatable=0;whiteSpace=wrap;html=1;labelBackgroundColor=none;rounded=1;fontColor=#1A1A1A;" vertex="1" parent="V9Rv2FVIS_NpuzhTLpX6-96">
          <mxGeometry y="80" width="140" height="30" as="geometry" />
        </mxCell>
        <mxCell id="V9Rv2FVIS_NpuzhTLpX6-100" value="AcademicYear" style="text;strokeColor=none;fillColor=none;align=left;verticalAlign=middle;spacingLeft=4;spacingRight=4;overflow=hidden;points=[[0,0.5],[1,0.5]];portConstraint=eastwest;rotatable=0;whiteSpace=wrap;html=1;labelBackgroundColor=none;rounded=1;fontColor=#1A1A1A;" vertex="1" parent="V9Rv2FVIS_NpuzhTLpX6-96">
          <mxGeometry y="110" width="140" height="30" as="geometry" />
        </mxCell>
        <mxCell id="V9Rv2FVIS_NpuzhTLpX6-101" value="Semester" style="text;strokeColor=none;fillColor=none;align=left;verticalAlign=middle;spacingLeft=4;spacingRight=4;overflow=hidden;points=[[0,0.5],[1,0.5]];portConstraint=eastwest;rotatable=0;whiteSpace=wrap;html=1;labelBackgroundColor=none;rounded=1;fontColor=#1A1A1A;" vertex="1" parent="V9Rv2FVIS_NpuzhTLpX6-96">
          <mxGeometry y="140" width="140" height="30" as="geometry" />
        </mxCell>
        <mxCell id="V9Rv2FVIS_NpuzhTLpX6-102" value="Capacity" style="text;strokeColor=none;fillColor=none;align=left;verticalAlign=middle;spacingLeft=4;spacingRight=4;overflow=hidden;points=[[0,0.5],[1,0.5]];portConstraint=eastwest;rotatable=0;whiteSpace=wrap;html=1;labelBackgroundColor=none;rounded=1;fontColor=#1A1A1A;" vertex="1" parent="V9Rv2FVIS_NpuzhTLpX6-96">
          <mxGeometry y="170" width="140" height="30" as="geometry" />
        </mxCell>
        <mxCell id="V9Rv2FVIS_NpuzhTLpX6-103" value="Location" style="text;strokeColor=none;fillColor=none;align=left;verticalAlign=middle;spacingLeft=4;spacingRight=4;overflow=hidden;points=[[0,0.5],[1,0.5]];portConstraint=eastwest;rotatable=0;whiteSpace=wrap;html=1;labelBackgroundColor=none;rounded=1;fontColor=#1A1A1A;" vertex="1" parent="V9Rv2FVIS_NpuzhTLpX6-96">
          <mxGeometry y="200" width="140" height="30" as="geometry" />
        </mxCell>
        <mxCell id="V9Rv2FVIS_NpuzhTLpX6-104" value="Schedule" style="text;strokeColor=none;fillColor=none;align=left;verticalAlign=middle;spacingLeft=4;spacingRight=4;overflow=hidden;points=[[0,0.5],[1,0.5]];portConstraint=eastwest;rotatable=0;whiteSpace=wrap;html=1;labelBackgroundColor=none;rounded=1;fontColor=#1A1A1A;" vertex="1" parent="V9Rv2FVIS_NpuzhTLpX6-96">
          <mxGeometry y="230" width="140" height="30" as="geometry" />
        </mxCell>
        <mxCell id="V9Rv2FVIS_NpuzhTLpX6-105" value="Enrollments" style="swimlane;fontStyle=0;childLayout=stackLayout;horizontal=1;startSize=20;horizontalStack=0;resizeParent=1;resizeParentMax=0;resizeLast=0;collapsible=1;marginBottom=0;whiteSpace=wrap;html=1;labelBackgroundColor=none;rounded=1;fillColor=#F5AB50;strokeColor=#909090;fontColor=#1A1A1A;" vertex="1" parent="1">
          <mxGeometry x="-220" y="440" width="140" height="170" as="geometry">
            <mxRectangle x="100" y="130" width="60" height="30" as="alternateBounds" />
          </mxGeometry>
        </mxCell>
        <mxCell id="V9Rv2FVIS_NpuzhTLpX6-106" value="EnrollmentID" style="text;strokeColor=none;fillColor=none;align=left;verticalAlign=middle;spacingLeft=4;spacingRight=4;overflow=hidden;points=[[0,0.5],[1,0.5]];portConstraint=eastwest;rotatable=0;whiteSpace=wrap;html=1;labelBackgroundColor=none;rounded=1;fontColor=#1A1A1A;" vertex="1" parent="V9Rv2FVIS_NpuzhTLpX6-105">
          <mxGeometry y="20" width="140" height="30" as="geometry" />
        </mxCell>
        <mxCell id="V9Rv2FVIS_NpuzhTLpX6-107" value="StudentID" style="text;strokeColor=none;fillColor=none;align=left;verticalAlign=middle;spacingLeft=4;spacingRight=4;overflow=hidden;points=[[0,0.5],[1,0.5]];portConstraint=eastwest;rotatable=0;whiteSpace=wrap;html=1;labelBackgroundColor=none;rounded=1;fontColor=#1A1A1A;" vertex="1" parent="V9Rv2FVIS_NpuzhTLpX6-105">
          <mxGeometry y="50" width="140" height="30" as="geometry" />
        </mxCell>
        <mxCell id="V9Rv2FVIS_NpuzhTLpX6-108" value="OfferingID" style="text;strokeColor=none;fillColor=none;align=left;verticalAlign=middle;spacingLeft=4;spacingRight=4;overflow=hidden;points=[[0,0.5],[1,0.5]];portConstraint=eastwest;rotatable=0;whiteSpace=wrap;html=1;labelBackgroundColor=none;rounded=1;fontColor=#1A1A1A;" vertex="1" parent="V9Rv2FVIS_NpuzhTLpX6-105">
          <mxGeometry y="80" width="140" height="30" as="geometry" />
        </mxCell>
        <mxCell id="V9Rv2FVIS_NpuzhTLpX6-109" value="EnrollmentDate" style="text;strokeColor=none;fillColor=none;align=left;verticalAlign=middle;spacingLeft=4;spacingRight=4;overflow=hidden;points=[[0,0.5],[1,0.5]];portConstraint=eastwest;rotatable=0;whiteSpace=wrap;html=1;labelBackgroundColor=none;rounded=1;fontColor=#1A1A1A;" vertex="1" parent="V9Rv2FVIS_NpuzhTLpX6-105">
          <mxGeometry y="110" width="140" height="30" as="geometry" />
        </mxCell>
        <mxCell id="V9Rv2FVIS_NpuzhTLpX6-110" value="Status" style="text;strokeColor=none;fillColor=none;align=left;verticalAlign=middle;spacingLeft=4;spacingRight=4;overflow=hidden;points=[[0,0.5],[1,0.5]];portConstraint=eastwest;rotatable=0;whiteSpace=wrap;html=1;labelBackgroundColor=none;rounded=1;fontColor=#1A1A1A;" vertex="1" parent="V9Rv2FVIS_NpuzhTLpX6-105">
          <mxGeometry y="140" width="140" height="30" as="geometry" />
        </mxCell>
        <mxCell id="V9Rv2FVIS_NpuzhTLpX6-111" style="edgeStyle=elbowEdgeStyle;rounded=1;orthogonalLoop=1;jettySize=auto;html=1;entryX=1.001;entryY=0.776;entryDx=0;entryDy=0;fontSize=12;startSize=8;endSize=8;labelBackgroundColor=none;fontColor=default;strokeColor=#182E3E;entryPerimeter=0;" edge="1" parent="1" source="V9Rv2FVIS_NpuzhTLpX6-107" target="V9Rv2FVIS_NpuzhTLpX6-61">
          <mxGeometry relative="1" as="geometry" />
        </mxCell>
        <mxCell id="V9Rv2FVIS_NpuzhTLpX6-112" style="edgeStyle=orthogonalEdgeStyle;rounded=1;orthogonalLoop=1;jettySize=auto;html=1;entryX=1;entryY=0.5;entryDx=0;entryDy=0;fontSize=12;startSize=8;endSize=8;labelBackgroundColor=none;fontColor=default;strokeColor=#182E3E;" edge="1" parent="1" source="V9Rv2FVIS_NpuzhTLpX6-108" target="V9Rv2FVIS_NpuzhTLpX6-97">
          <mxGeometry relative="1" as="geometry">
            <Array as="points">
              <mxPoint x="-270" y="535" />
              <mxPoint x="-270" y="865" />
            </Array>
          </mxGeometry>
        </mxCell>
        <mxCell id="V9Rv2FVIS_NpuzhTLpX6-113" value="Prerequisites" style="swimlane;fontStyle=0;childLayout=stackLayout;horizontal=1;startSize=20;horizontalStack=0;resizeParent=1;resizeParentMax=0;resizeLast=0;collapsible=1;marginBottom=0;whiteSpace=wrap;html=1;labelBackgroundColor=none;rounded=1;fillColor=#F5AB50;strokeColor=#909090;fontColor=#1A1A1A;" vertex="1" parent="1">
          <mxGeometry x="-670" y="170" width="140" height="110" as="geometry">
            <mxRectangle x="100" y="130" width="60" height="30" as="alternateBounds" />
          </mxGeometry>
        </mxCell>
        <mxCell id="V9Rv2FVIS_NpuzhTLpX6-114" value="PrerequisiteID" style="text;strokeColor=none;fillColor=none;align=left;verticalAlign=middle;spacingLeft=4;spacingRight=4;overflow=hidden;points=[[0,0.5],[1,0.5]];portConstraint=eastwest;rotatable=0;whiteSpace=wrap;html=1;labelBackgroundColor=none;rounded=1;fontColor=#1A1A1A;" vertex="1" parent="V9Rv2FVIS_NpuzhTLpX6-113">
          <mxGeometry y="20" width="140" height="30" as="geometry" />
        </mxCell>
        <mxCell id="V9Rv2FVIS_NpuzhTLpX6-115" value="CourseID" style="text;strokeColor=none;fillColor=none;align=left;verticalAlign=middle;spacingLeft=4;spacingRight=4;overflow=hidden;points=[[0,0.5],[1,0.5]];portConstraint=eastwest;rotatable=0;whiteSpace=wrap;html=1;labelBackgroundColor=none;rounded=1;fontColor=#1A1A1A;" vertex="1" parent="V9Rv2FVIS_NpuzhTLpX6-113">
          <mxGeometry y="50" width="140" height="30" as="geometry" />
        </mxCell>
        <mxCell id="V9Rv2FVIS_NpuzhTLpX6-116" value="PrerequisiteCourseID" style="text;strokeColor=none;fillColor=none;align=left;verticalAlign=middle;spacingLeft=4;spacingRight=4;overflow=hidden;points=[[0,0.5],[1,0.5]];portConstraint=eastwest;rotatable=0;whiteSpace=wrap;html=1;labelBackgroundColor=none;rounded=1;fontColor=#1A1A1A;" vertex="1" parent="V9Rv2FVIS_NpuzhTLpX6-113">
          <mxGeometry y="80" width="140" height="30" as="geometry" />
        </mxCell>
        <mxCell id="V9Rv2FVIS_NpuzhTLpX6-117" value="Majors" style="swimlane;fontStyle=0;childLayout=stackLayout;horizontal=1;startSize=20;horizontalStack=0;resizeParent=1;resizeParentMax=0;resizeLast=0;collapsible=1;marginBottom=0;whiteSpace=wrap;html=1;labelBackgroundColor=none;rounded=1;fillColor=#F5AB50;strokeColor=#909090;fontColor=#1A1A1A;" vertex="1" parent="1">
          <mxGeometry x="-880" y="310" width="140" height="110" as="geometry">
            <mxRectangle x="100" y="130" width="60" height="30" as="alternateBounds" />
          </mxGeometry>
        </mxCell>
        <mxCell id="V9Rv2FVIS_NpuzhTLpX6-118" value="MajorID" style="text;strokeColor=none;fillColor=none;align=left;verticalAlign=middle;spacingLeft=4;spacingRight=4;overflow=hidden;points=[[0,0.5],[1,0.5]];portConstraint=eastwest;rotatable=0;whiteSpace=wrap;html=1;labelBackgroundColor=none;rounded=1;fontColor=#1A1A1A;" vertex="1" parent="V9Rv2FVIS_NpuzhTLpX6-117">
          <mxGeometry y="20" width="140" height="30" as="geometry" />
        </mxCell>
        <mxCell id="V9Rv2FVIS_NpuzhTLpX6-119" value="MajorName" style="text;strokeColor=none;fillColor=none;align=left;verticalAlign=middle;spacingLeft=4;spacingRight=4;overflow=hidden;points=[[0,0.5],[1,0.5]];portConstraint=eastwest;rotatable=0;whiteSpace=wrap;html=1;labelBackgroundColor=none;rounded=1;fontColor=#1A1A1A;" vertex="1" parent="V9Rv2FVIS_NpuzhTLpX6-117">
          <mxGeometry y="50" width="140" height="30" as="geometry" />
        </mxCell>
        <mxCell id="V9Rv2FVIS_NpuzhTLpX6-120" value="DepartmentID" style="text;strokeColor=none;fillColor=none;align=left;verticalAlign=middle;spacingLeft=4;spacingRight=4;overflow=hidden;points=[[0,0.5],[1,0.5]];portConstraint=eastwest;rotatable=0;whiteSpace=wrap;html=1;labelBackgroundColor=none;rounded=1;fontColor=#1A1A1A;" vertex="1" parent="V9Rv2FVIS_NpuzhTLpX6-117">
          <mxGeometry y="80" width="140" height="30" as="geometry" />
        </mxCell>
        <mxCell id="V9Rv2FVIS_NpuzhTLpX6-121" style="edgeStyle=elbowEdgeStyle;rounded=1;orthogonalLoop=1;jettySize=auto;html=1;entryX=-0.003;entryY=0.249;entryDx=0;entryDy=0;entryPerimeter=0;fontSize=12;startSize=8;endSize=8;exitX=1;exitY=0.5;exitDx=0;exitDy=0;labelBackgroundColor=none;fontColor=default;strokeColor=#182E3E;" edge="1" parent="1" source="V9Rv2FVIS_NpuzhTLpX6-120" target="V9Rv2FVIS_NpuzhTLpX6-57">
          <mxGeometry relative="1" as="geometry" />
        </mxCell>
        <mxCell id="V9Rv2FVIS_NpuzhTLpX6-122" style="edgeStyle=elbowEdgeStyle;rounded=1;orthogonalLoop=1;jettySize=auto;html=1;fontSize=12;startSize=8;endSize=8;elbow=vertical;endArrow=none;startFill=0;jumpSize=6;labelBackgroundColor=none;fontColor=default;strokeColor=#182E3E;" edge="1" parent="1">
          <mxGeometry relative="1" as="geometry">
            <mxPoint x="-920" y="810" as="targetPoint" />
            <mxPoint x="-550" y="810" as="sourcePoint" />
            <Array as="points">
              <mxPoint x="-700" y="810" />
              <mxPoint x="-590" y="820" />
            </Array>
          </mxGeometry>
        </mxCell>
        <mxCell id="V9Rv2FVIS_NpuzhTLpX6-123" value="" style="endArrow=none;html=1;rounded=1;fontSize=12;startSize=8;endSize=8;entryX=0;entryY=0.5;entryDx=0;entryDy=0;labelBackgroundColor=none;fontColor=default;strokeColor=#182E3E;edgeStyle=elbowEdgeStyle;" edge="1" parent="1" target="V9Rv2FVIS_NpuzhTLpX6-70">
          <mxGeometry width="50" height="50" relative="1" as="geometry">
            <mxPoint x="-850" y="810" as="sourcePoint" />
            <mxPoint x="-510" y="550" as="targetPoint" />
            <Array as="points">
              <mxPoint x="-490" y="760" />
            </Array>
          </mxGeometry>
        </mxCell>
        <mxCell id="V9Rv2FVIS_NpuzhTLpX6-124" value="" style="endArrow=classic;html=1;rounded=1;fontSize=12;startSize=8;endSize=8;entryX=-0.005;entryY=0.822;entryDx=0;entryDy=0;edgeStyle=elbowEdgeStyle;entryPerimeter=0;labelBackgroundColor=none;fontColor=default;strokeColor=#182E3E;" edge="1" parent="1" target="V9Rv2FVIS_NpuzhTLpX6-118">
          <mxGeometry width="50" height="50" relative="1" as="geometry">
            <mxPoint x="-920" y="810" as="sourcePoint" />
            <mxPoint x="-510" y="550" as="targetPoint" />
            <Array as="points">
              <mxPoint x="-930" y="580" />
            </Array>
          </mxGeometry>
        </mxCell>
        <mxCell id="V9Rv2FVIS_NpuzhTLpX6-125" value="Curriculum" style="swimlane;fontStyle=0;childLayout=stackLayout;horizontal=1;startSize=20;horizontalStack=0;resizeParent=1;resizeParentMax=0;resizeLast=0;collapsible=1;marginBottom=0;whiteSpace=wrap;html=1;labelBackgroundColor=none;rounded=1;fillColor=#F5AB50;strokeColor=#909090;fontColor=#1A1A1A;" vertex="1" parent="1">
          <mxGeometry x="-870" y="110" width="140" height="170" as="geometry">
            <mxRectangle x="100" y="130" width="60" height="30" as="alternateBounds" />
          </mxGeometry>
        </mxCell>
        <mxCell id="V9Rv2FVIS_NpuzhTLpX6-126" value="CurriculumID" style="text;strokeColor=none;fillColor=none;align=left;verticalAlign=middle;spacingLeft=4;spacingRight=4;overflow=hidden;points=[[0,0.5],[1,0.5]];portConstraint=eastwest;rotatable=0;whiteSpace=wrap;html=1;labelBackgroundColor=none;rounded=1;fontColor=#1A1A1A;" vertex="1" parent="V9Rv2FVIS_NpuzhTLpX6-125">
          <mxGeometry y="20" width="140" height="30" as="geometry" />
        </mxCell>
        <mxCell id="V9Rv2FVIS_NpuzhTLpX6-127" value="MajorID" style="text;strokeColor=none;fillColor=none;align=left;verticalAlign=middle;spacingLeft=4;spacingRight=4;overflow=hidden;points=[[0,0.5],[1,0.5]];portConstraint=eastwest;rotatable=0;whiteSpace=wrap;html=1;labelBackgroundColor=none;rounded=1;fontColor=#1A1A1A;" vertex="1" parent="V9Rv2FVIS_NpuzhTLpX6-125">
          <mxGeometry y="50" width="140" height="30" as="geometry" />
        </mxCell>
        <mxCell id="V9Rv2FVIS_NpuzhTLpX6-128" value="CourseID" style="text;strokeColor=none;fillColor=none;align=left;verticalAlign=middle;spacingLeft=4;spacingRight=4;overflow=hidden;points=[[0,0.5],[1,0.5]];portConstraint=eastwest;rotatable=0;whiteSpace=wrap;html=1;labelBackgroundColor=none;rounded=1;fontColor=#1A1A1A;" vertex="1" parent="V9Rv2FVIS_NpuzhTLpX6-125">
          <mxGeometry y="80" width="140" height="30" as="geometry" />
        </mxCell>
        <mxCell id="V9Rv2FVIS_NpuzhTLpX6-129" value="RequiredSemester" style="text;strokeColor=none;fillColor=none;align=left;verticalAlign=middle;spacingLeft=4;spacingRight=4;overflow=hidden;points=[[0,0.5],[1,0.5]];portConstraint=eastwest;rotatable=0;whiteSpace=wrap;html=1;labelBackgroundColor=none;rounded=1;fontColor=#1A1A1A;" vertex="1" parent="V9Rv2FVIS_NpuzhTLpX6-125">
          <mxGeometry y="110" width="140" height="30" as="geometry" />
        </mxCell>
        <mxCell id="V9Rv2FVIS_NpuzhTLpX6-130" value="IsMandatory" style="text;strokeColor=none;fillColor=none;align=left;verticalAlign=middle;spacingLeft=4;spacingRight=4;overflow=hidden;points=[[0,0.5],[1,0.5]];portConstraint=eastwest;rotatable=0;whiteSpace=wrap;html=1;labelBackgroundColor=none;rounded=1;fontColor=#1A1A1A;" vertex="1" parent="V9Rv2FVIS_NpuzhTLpX6-125">
          <mxGeometry y="140" width="140" height="30" as="geometry" />
        </mxCell>
        <mxCell id="V9Rv2FVIS_NpuzhTLpX6-131" style="edgeStyle=elbowEdgeStyle;rounded=1;orthogonalLoop=1;jettySize=auto;html=1;entryX=0.001;entryY=0.194;entryDx=0;entryDy=0;entryPerimeter=0;fontSize=12;startSize=8;endSize=8;labelBackgroundColor=none;fontColor=default;strokeColor=#182E3E;" edge="1" parent="1" source="V9Rv2FVIS_NpuzhTLpX6-127" target="V9Rv2FVIS_NpuzhTLpX6-118">
          <mxGeometry relative="1" as="geometry">
            <Array as="points">
              <mxPoint x="-920" y="260" />
            </Array>
          </mxGeometry>
        </mxCell>
        <mxCell id="V9Rv2FVIS_NpuzhTLpX6-132" style="edgeStyle=elbowEdgeStyle;rounded=1;orthogonalLoop=1;jettySize=auto;html=1;exitX=1;exitY=0.5;exitDx=0;exitDy=0;entryX=0;entryY=0.5;entryDx=0;entryDy=0;fontSize=12;startSize=8;endSize=8;labelBackgroundColor=none;fontColor=default;strokeColor=#182E3E;" edge="1" parent="1" source="V9Rv2FVIS_NpuzhTLpX6-128" target="V9Rv2FVIS_NpuzhTLpX6-115">
          <mxGeometry relative="1" as="geometry" />
        </mxCell>
        <mxCell id="V9Rv2FVIS_NpuzhTLpX6-133" value="LogEvents" style="swimlane;fontStyle=0;childLayout=stackLayout;horizontal=1;startSize=20;horizontalStack=0;resizeParent=1;resizeParentMax=0;resizeLast=0;collapsible=1;marginBottom=0;whiteSpace=wrap;html=1;labelBackgroundColor=none;rounded=1;fillColor=#F5AB50;strokeColor=#909090;fontColor=#1A1A1A;" vertex="1" parent="1">
          <mxGeometry x="-890" y="610" width="140" height="170" as="geometry">
            <mxRectangle x="100" y="130" width="60" height="30" as="alternateBounds" />
          </mxGeometry>
        </mxCell>
        <mxCell id="V9Rv2FVIS_NpuzhTLpX6-134" value="LogID" style="text;strokeColor=none;fillColor=none;align=left;verticalAlign=middle;spacingLeft=4;spacingRight=4;overflow=hidden;points=[[0,0.5],[1,0.5]];portConstraint=eastwest;rotatable=0;whiteSpace=wrap;html=1;labelBackgroundColor=none;rounded=1;fontColor=#1A1A1A;" vertex="1" parent="V9Rv2FVIS_NpuzhTLpX6-133">
          <mxGeometry y="20" width="140" height="30" as="geometry" />
        </mxCell>
        <mxCell id="V9Rv2FVIS_NpuzhTLpX6-135" value="EventType" style="text;strokeColor=none;fillColor=none;align=left;verticalAlign=middle;spacingLeft=4;spacingRight=4;overflow=hidden;points=[[0,0.5],[1,0.5]];portConstraint=eastwest;rotatable=0;whiteSpace=wrap;html=1;labelBackgroundColor=none;rounded=1;fontColor=#1A1A1A;" vertex="1" parent="V9Rv2FVIS_NpuzhTLpX6-133">
          <mxGeometry y="50" width="140" height="30" as="geometry" />
        </mxCell>
        <mxCell id="V9Rv2FVIS_NpuzhTLpX6-136" value="EventDescription" style="text;strokeColor=none;fillColor=none;align=left;verticalAlign=middle;spacingLeft=4;spacingRight=4;overflow=hidden;points=[[0,0.5],[1,0.5]];portConstraint=eastwest;rotatable=0;whiteSpace=wrap;html=1;labelBackgroundColor=none;rounded=1;fontColor=#1A1A1A;" vertex="1" parent="V9Rv2FVIS_NpuzhTLpX6-133">
          <mxGeometry y="80" width="140" height="30" as="geometry" />
        </mxCell>
        <mxCell id="V9Rv2FVIS_NpuzhTLpX6-137" value="EventDate" style="text;strokeColor=none;fillColor=none;align=left;verticalAlign=middle;spacingLeft=4;spacingRight=4;overflow=hidden;points=[[0,0.5],[1,0.5]];portConstraint=eastwest;rotatable=0;whiteSpace=wrap;html=1;labelBackgroundColor=none;rounded=1;fontColor=#1A1A1A;" vertex="1" parent="V9Rv2FVIS_NpuzhTLpX6-133">
          <mxGeometry y="110" width="140" height="30" as="geometry" />
        </mxCell>
        <mxCell id="V9Rv2FVIS_NpuzhTLpX6-138" value="UserID" style="text;strokeColor=none;fillColor=none;align=left;verticalAlign=middle;spacingLeft=4;spacingRight=4;overflow=hidden;points=[[0,0.5],[1,0.5]];portConstraint=eastwest;rotatable=0;whiteSpace=wrap;html=1;labelBackgroundColor=none;rounded=1;fontColor=#1A1A1A;" vertex="1" parent="V9Rv2FVIS_NpuzhTLpX6-133">
          <mxGeometry y="140" width="140" height="30" as="geometry" />
        </mxCell>
        <mxCell id="V9Rv2FVIS_NpuzhTLpX6-139" value="AcademicYears" style="swimlane;fontStyle=0;childLayout=stackLayout;horizontal=1;startSize=20;horizontalStack=0;resizeParent=1;resizeParentMax=0;resizeLast=0;collapsible=1;marginBottom=0;whiteSpace=wrap;html=1;labelBackgroundColor=none;rounded=1;fillColor=#F5AB50;strokeColor=#909090;fontColor=#1A1A1A;" vertex="1" parent="1">
          <mxGeometry x="-890" y="450" width="140" height="140" as="geometry">
            <mxRectangle x="100" y="130" width="60" height="30" as="alternateBounds" />
          </mxGeometry>
        </mxCell>
        <mxCell id="V9Rv2FVIS_NpuzhTLpX6-140" value="AcademicYearID" style="text;strokeColor=none;fillColor=none;align=left;verticalAlign=middle;spacingLeft=4;spacingRight=4;overflow=hidden;points=[[0,0.5],[1,0.5]];portConstraint=eastwest;rotatable=0;whiteSpace=wrap;html=1;labelBackgroundColor=none;rounded=1;fontColor=#1A1A1A;" vertex="1" parent="V9Rv2FVIS_NpuzhTLpX6-139">
          <mxGeometry y="20" width="140" height="30" as="geometry" />
        </mxCell>
        <mxCell id="V9Rv2FVIS_NpuzhTLpX6-141" value="YearStart" style="text;strokeColor=none;fillColor=none;align=left;verticalAlign=middle;spacingLeft=4;spacingRight=4;overflow=hidden;points=[[0,0.5],[1,0.5]];portConstraint=eastwest;rotatable=0;whiteSpace=wrap;html=1;labelBackgroundColor=none;rounded=1;fontColor=#1A1A1A;" vertex="1" parent="V9Rv2FVIS_NpuzhTLpX6-139">
          <mxGeometry y="50" width="140" height="30" as="geometry" />
        </mxCell>
        <mxCell id="V9Rv2FVIS_NpuzhTLpX6-142" value="YearEnd" style="text;strokeColor=none;fillColor=none;align=left;verticalAlign=middle;spacingLeft=4;spacingRight=4;overflow=hidden;points=[[0,0.5],[1,0.5]];portConstraint=eastwest;rotatable=0;whiteSpace=wrap;html=1;labelBackgroundColor=none;rounded=1;fontColor=#1A1A1A;" vertex="1" parent="V9Rv2FVIS_NpuzhTLpX6-139">
          <mxGeometry y="80" width="140" height="30" as="geometry" />
        </mxCell>
        <mxCell id="V9Rv2FVIS_NpuzhTLpX6-143" value="Description" style="text;strokeColor=none;fillColor=none;align=left;verticalAlign=middle;spacingLeft=4;spacingRight=4;overflow=hidden;points=[[0,0.5],[1,0.5]];portConstraint=eastwest;rotatable=0;whiteSpace=wrap;html=1;labelBackgroundColor=none;rounded=1;fontColor=#1A1A1A;" vertex="1" parent="V9Rv2FVIS_NpuzhTLpX6-139">
          <mxGeometry y="110" width="140" height="30" as="geometry" />
        </mxCell>
        <mxCell id="V9Rv2FVIS_NpuzhTLpX6-144" value="Grades" style="swimlane;fontStyle=0;childLayout=stackLayout;horizontal=1;startSize=20;horizontalStack=0;resizeParent=1;resizeParentMax=0;resizeLast=0;collapsible=1;marginBottom=0;whiteSpace=wrap;html=1;labelBackgroundColor=none;rounded=1;fillColor=#F5AB50;strokeColor=#909090;fontColor=#1A1A1A;" vertex="1" parent="1">
          <mxGeometry x="-220" y="650" width="140" height="140" as="geometry">
            <mxRectangle x="100" y="130" width="60" height="30" as="alternateBounds" />
          </mxGeometry>
        </mxCell>
        <mxCell id="V9Rv2FVIS_NpuzhTLpX6-145" value="GradeID" style="text;strokeColor=none;fillColor=none;align=left;verticalAlign=middle;spacingLeft=4;spacingRight=4;overflow=hidden;points=[[0,0.5],[1,0.5]];portConstraint=eastwest;rotatable=0;whiteSpace=wrap;html=1;labelBackgroundColor=none;rounded=1;fontColor=#1A1A1A;" vertex="1" parent="V9Rv2FVIS_NpuzhTLpX6-144">
          <mxGeometry y="20" width="140" height="30" as="geometry" />
        </mxCell>
        <mxCell id="V9Rv2FVIS_NpuzhTLpX6-146" value="EnrollmentID" style="text;strokeColor=none;fillColor=none;align=left;verticalAlign=middle;spacingLeft=4;spacingRight=4;overflow=hidden;points=[[0,0.5],[1,0.5]];portConstraint=eastwest;rotatable=0;whiteSpace=wrap;html=1;labelBackgroundColor=none;rounded=1;fontColor=#1A1A1A;" vertex="1" parent="V9Rv2FVIS_NpuzhTLpX6-144">
          <mxGeometry y="50" width="140" height="30" as="geometry" />
        </mxCell>
        <mxCell id="V9Rv2FVIS_NpuzhTLpX6-147" value="FinalGrade" style="text;strokeColor=none;fillColor=none;align=left;verticalAlign=middle;spacingLeft=4;spacingRight=4;overflow=hidden;points=[[0,0.5],[1,0.5]];portConstraint=eastwest;rotatable=0;whiteSpace=wrap;html=1;labelBackgroundColor=none;rounded=1;fontColor=#1A1A1A;" vertex="1" parent="V9Rv2FVIS_NpuzhTLpX6-144">
          <mxGeometry y="80" width="140" height="30" as="geometry" />
        </mxCell>
        <mxCell id="V9Rv2FVIS_NpuzhTLpX6-148" value="GradeDate" style="text;strokeColor=none;fillColor=none;align=left;verticalAlign=middle;spacingLeft=4;spacingRight=4;overflow=hidden;points=[[0,0.5],[1,0.5]];portConstraint=eastwest;rotatable=0;whiteSpace=wrap;html=1;labelBackgroundColor=none;rounded=1;fontColor=#1A1A1A;" vertex="1" parent="V9Rv2FVIS_NpuzhTLpX6-144">
          <mxGeometry y="110" width="140" height="30" as="geometry" />
        </mxCell>
        <mxCell id="V9Rv2FVIS_NpuzhTLpX6-149" style="edgeStyle=elbowEdgeStyle;rounded=1;orthogonalLoop=1;jettySize=auto;html=1;fontSize=12;startSize=8;endSize=8;exitX=1;exitY=0.5;exitDx=0;exitDy=0;entryX=1;entryY=0.5;entryDx=0;entryDy=0;labelBackgroundColor=none;fontColor=default;strokeColor=#182E3E;" edge="1" parent="1" source="V9Rv2FVIS_NpuzhTLpX6-146" target="V9Rv2FVIS_NpuzhTLpX6-106">
          <mxGeometry relative="1" as="geometry">
            <mxPoint x="-49.998823529411766" y="700" as="sourcePoint" />
            <mxPoint x="-40" y="480" as="targetPoint" />
            <Array as="points">
              <mxPoint x="-50" y="600" />
            </Array>
          </mxGeometry>
        </mxCell>
        <mxCell id="V9Rv2FVIS_NpuzhTLpX6-150" value="Addresses" style="swimlane;fontStyle=0;childLayout=stackLayout;horizontal=1;startSize=20;horizontalStack=0;resizeParent=1;resizeParentMax=0;resizeLast=0;collapsible=1;marginBottom=0;whiteSpace=wrap;html=1;labelBackgroundColor=none;rounded=1;fillColor=#F5AB50;strokeColor=#909090;fontColor=#1A1A1A;" vertex="1" parent="1">
          <mxGeometry x="-690" y="860" width="140" height="200" as="geometry">
            <mxRectangle x="100" y="130" width="60" height="30" as="alternateBounds" />
          </mxGeometry>
        </mxCell>
        <mxCell id="V9Rv2FVIS_NpuzhTLpX6-151" value="AddressID" style="text;strokeColor=none;fillColor=none;align=left;verticalAlign=middle;spacingLeft=4;spacingRight=4;overflow=hidden;points=[[0,0.5],[1,0.5]];portConstraint=eastwest;rotatable=0;whiteSpace=wrap;html=1;labelBackgroundColor=none;rounded=1;fontColor=#1A1A1A;" vertex="1" parent="V9Rv2FVIS_NpuzhTLpX6-150">
          <mxGeometry y="20" width="140" height="30" as="geometry" />
        </mxCell>
        <mxCell id="V9Rv2FVIS_NpuzhTLpX6-152" value="Street" style="text;strokeColor=none;fillColor=none;align=left;verticalAlign=middle;spacingLeft=4;spacingRight=4;overflow=hidden;points=[[0,0.5],[1,0.5]];portConstraint=eastwest;rotatable=0;whiteSpace=wrap;html=1;labelBackgroundColor=none;rounded=1;fontColor=#1A1A1A;" vertex="1" parent="V9Rv2FVIS_NpuzhTLpX6-150">
          <mxGeometry y="50" width="140" height="30" as="geometry" />
        </mxCell>
        <mxCell id="V9Rv2FVIS_NpuzhTLpX6-153" value="City" style="text;strokeColor=none;fillColor=none;align=left;verticalAlign=middle;spacingLeft=4;spacingRight=4;overflow=hidden;points=[[0,0.5],[1,0.5]];portConstraint=eastwest;rotatable=0;whiteSpace=wrap;html=1;labelBackgroundColor=none;rounded=1;fontColor=#1A1A1A;" vertex="1" parent="V9Rv2FVIS_NpuzhTLpX6-150">
          <mxGeometry y="80" width="140" height="30" as="geometry" />
        </mxCell>
        <mxCell id="V9Rv2FVIS_NpuzhTLpX6-154" value="StateProvince" style="text;strokeColor=none;fillColor=none;align=left;verticalAlign=middle;spacingLeft=4;spacingRight=4;overflow=hidden;points=[[0,0.5],[1,0.5]];portConstraint=eastwest;rotatable=0;whiteSpace=wrap;html=1;labelBackgroundColor=none;rounded=1;fontColor=#1A1A1A;" vertex="1" parent="V9Rv2FVIS_NpuzhTLpX6-150">
          <mxGeometry y="110" width="140" height="30" as="geometry" />
        </mxCell>
        <mxCell id="V9Rv2FVIS_NpuzhTLpX6-155" value="ZipCode" style="text;strokeColor=none;fillColor=none;align=left;verticalAlign=middle;spacingLeft=4;spacingRight=4;overflow=hidden;points=[[0,0.5],[1,0.5]];portConstraint=eastwest;rotatable=0;whiteSpace=wrap;html=1;labelBackgroundColor=none;rounded=1;fontColor=#1A1A1A;" vertex="1" parent="V9Rv2FVIS_NpuzhTLpX6-150">
          <mxGeometry y="140" width="140" height="30" as="geometry" />
        </mxCell>
        <mxCell id="V9Rv2FVIS_NpuzhTLpX6-156" value="Country" style="text;strokeColor=none;fillColor=none;align=left;verticalAlign=middle;spacingLeft=4;spacingRight=4;overflow=hidden;points=[[0,0.5],[1,0.5]];portConstraint=eastwest;rotatable=0;whiteSpace=wrap;html=1;labelBackgroundColor=none;rounded=1;fontColor=#1A1A1A;" vertex="1" parent="V9Rv2FVIS_NpuzhTLpX6-150">
          <mxGeometry y="170" width="140" height="30" as="geometry" />
        </mxCell>
        <mxCell id="V9Rv2FVIS_NpuzhTLpX6-157" style="edgeStyle=elbowEdgeStyle;rounded=1;orthogonalLoop=1;jettySize=auto;html=1;exitX=0;exitY=0.5;exitDx=0;exitDy=0;entryX=1;entryY=0.5;entryDx=0;entryDy=0;fontSize=12;startSize=8;endSize=8;labelBackgroundColor=none;fontColor=default;strokeColor=#182E3E;" edge="1" parent="1" source="V9Rv2FVIS_NpuzhTLpX6-72" target="V9Rv2FVIS_NpuzhTLpX6-151">
          <mxGeometry relative="1" as="geometry">
            <Array as="points">
              <mxPoint x="-470" y="830" />
            </Array>
          </mxGeometry>
        </mxCell>
        <mxCell id="V9Rv2FVIS_NpuzhTLpX6-158" style="edgeStyle=elbowEdgeStyle;rounded=1;orthogonalLoop=1;jettySize=auto;html=1;entryX=0;entryY=0.5;entryDx=0;entryDy=0;fontSize=12;startSize=8;endSize=8;labelBackgroundColor=none;fontColor=default;strokeColor=#182E3E;" edge="1" parent="1" source="V9Rv2FVIS_NpuzhTLpX6-82" target="V9Rv2FVIS_NpuzhTLpX6-151">
          <mxGeometry relative="1" as="geometry">
            <Array as="points">
              <mxPoint x="-730" y="840" />
            </Array>
          </mxGeometry>
        </mxCell>
        <mxCell id="V9Rv2FVIS_NpuzhTLpX6-159" value="StudentContacts" style="swimlane;fontStyle=0;childLayout=stackLayout;horizontal=1;startSize=20;horizontalStack=0;resizeParent=1;resizeParentMax=0;resizeLast=0;collapsible=1;marginBottom=0;whiteSpace=wrap;html=1;labelBackgroundColor=none;rounded=1;fillColor=#F5AB50;strokeColor=#909090;fontColor=#1A1A1A;" vertex="1" parent="1">
          <mxGeometry x="-200" y="180" width="140" height="200" as="geometry">
            <mxRectangle x="100" y="130" width="60" height="30" as="alternateBounds" />
          </mxGeometry>
        </mxCell>
        <mxCell id="V9Rv2FVIS_NpuzhTLpX6-160" value="ContactID" style="text;strokeColor=none;fillColor=none;align=left;verticalAlign=middle;spacingLeft=4;spacingRight=4;overflow=hidden;points=[[0,0.5],[1,0.5]];portConstraint=eastwest;rotatable=0;whiteSpace=wrap;html=1;labelBackgroundColor=none;rounded=1;fontColor=#1A1A1A;" vertex="1" parent="V9Rv2FVIS_NpuzhTLpX6-159">
          <mxGeometry y="20" width="140" height="30" as="geometry" />
        </mxCell>
        <mxCell id="V9Rv2FVIS_NpuzhTLpX6-161" value="StudentID" style="text;strokeColor=none;fillColor=none;align=left;verticalAlign=middle;spacingLeft=4;spacingRight=4;overflow=hidden;points=[[0,0.5],[1,0.5]];portConstraint=eastwest;rotatable=0;whiteSpace=wrap;html=1;labelBackgroundColor=none;rounded=1;fontColor=#1A1A1A;" vertex="1" parent="V9Rv2FVIS_NpuzhTLpX6-159">
          <mxGeometry y="50" width="140" height="30" as="geometry" />
        </mxCell>
        <mxCell id="V9Rv2FVIS_NpuzhTLpX6-162" value="FullName" style="text;strokeColor=none;fillColor=none;align=left;verticalAlign=middle;spacingLeft=4;spacingRight=4;overflow=hidden;points=[[0,0.5],[1,0.5]];portConstraint=eastwest;rotatable=0;whiteSpace=wrap;html=1;labelBackgroundColor=none;rounded=1;fontColor=#1A1A1A;" vertex="1" parent="V9Rv2FVIS_NpuzhTLpX6-159">
          <mxGeometry y="80" width="140" height="30" as="geometry" />
        </mxCell>
        <mxCell id="V9Rv2FVIS_NpuzhTLpX6-163" value="Relationship" style="text;strokeColor=none;fillColor=none;align=left;verticalAlign=middle;spacingLeft=4;spacingRight=4;overflow=hidden;points=[[0,0.5],[1,0.5]];portConstraint=eastwest;rotatable=0;whiteSpace=wrap;html=1;labelBackgroundColor=none;rounded=1;fontColor=#1A1A1A;" vertex="1" parent="V9Rv2FVIS_NpuzhTLpX6-159">
          <mxGeometry y="110" width="140" height="30" as="geometry" />
        </mxCell>
        <mxCell id="V9Rv2FVIS_NpuzhTLpX6-164" value="PhoneNumber" style="text;strokeColor=none;fillColor=none;align=left;verticalAlign=middle;spacingLeft=4;spacingRight=4;overflow=hidden;points=[[0,0.5],[1,0.5]];portConstraint=eastwest;rotatable=0;whiteSpace=wrap;html=1;labelBackgroundColor=none;rounded=1;fontColor=#1A1A1A;" vertex="1" parent="V9Rv2FVIS_NpuzhTLpX6-159">
          <mxGeometry y="140" width="140" height="30" as="geometry" />
        </mxCell>
        <mxCell id="V9Rv2FVIS_NpuzhTLpX6-165" value="Email" style="text;strokeColor=none;fillColor=none;align=left;verticalAlign=middle;spacingLeft=4;spacingRight=4;overflow=hidden;points=[[0,0.5],[1,0.5]];portConstraint=eastwest;rotatable=0;whiteSpace=wrap;html=1;labelBackgroundColor=none;rounded=1;fontColor=#1A1A1A;" vertex="1" parent="V9Rv2FVIS_NpuzhTLpX6-159">
          <mxGeometry y="170" width="140" height="30" as="geometry" />
        </mxCell>
        <mxCell id="V9Rv2FVIS_NpuzhTLpX6-166" style="edgeStyle=elbowEdgeStyle;rounded=1;orthogonalLoop=1;jettySize=auto;html=1;entryX=0.999;entryY=0.285;entryDx=0;entryDy=0;entryPerimeter=0;fontSize=12;startSize=8;endSize=8;labelBackgroundColor=none;fontColor=default;strokeColor=#182E3E;" edge="1" parent="1" source="V9Rv2FVIS_NpuzhTLpX6-161" target="V9Rv2FVIS_NpuzhTLpX6-61">
          <mxGeometry relative="1" as="geometry">
            <Array as="points">
              <mxPoint x="-220" y="360" />
            </Array>
          </mxGeometry>
        </mxCell>
        <mxCell id="V9Rv2FVIS_NpuzhTLpX6-167" value="CourseCategories" style="swimlane;fontStyle=0;childLayout=stackLayout;horizontal=1;startSize=20;horizontalStack=0;resizeParent=1;resizeParentMax=0;resizeLast=0;collapsible=1;marginBottom=0;whiteSpace=wrap;html=1;labelBackgroundColor=none;rounded=1;fillColor=#F5AB50;strokeColor=#909090;fontColor=#1A1A1A;" vertex="1" parent="1">
          <mxGeometry x="-670" y="290" width="140" height="110" as="geometry">
            <mxRectangle x="100" y="130" width="60" height="30" as="alternateBounds" />
          </mxGeometry>
        </mxCell>
        <mxCell id="V9Rv2FVIS_NpuzhTLpX6-168" value="CategoryID" style="text;strokeColor=none;fillColor=none;align=left;verticalAlign=middle;spacingLeft=4;spacingRight=4;overflow=hidden;points=[[0,0.5],[1,0.5]];portConstraint=eastwest;rotatable=0;whiteSpace=wrap;html=1;labelBackgroundColor=none;rounded=1;fontColor=#1A1A1A;" vertex="1" parent="V9Rv2FVIS_NpuzhTLpX6-167">
          <mxGeometry y="20" width="140" height="30" as="geometry" />
        </mxCell>
        <mxCell id="V9Rv2FVIS_NpuzhTLpX6-169" value="CategoryName" style="text;strokeColor=none;fillColor=none;align=left;verticalAlign=middle;spacingLeft=4;spacingRight=4;overflow=hidden;points=[[0,0.5],[1,0.5]];portConstraint=eastwest;rotatable=0;whiteSpace=wrap;html=1;labelBackgroundColor=none;rounded=1;fontColor=#1A1A1A;" vertex="1" parent="V9Rv2FVIS_NpuzhTLpX6-167">
          <mxGeometry y="50" width="140" height="30" as="geometry" />
        </mxCell>
        <mxCell id="V9Rv2FVIS_NpuzhTLpX6-170" value="Description" style="text;strokeColor=none;fillColor=none;align=left;verticalAlign=middle;spacingLeft=4;spacingRight=4;overflow=hidden;points=[[0,0.5],[1,0.5]];portConstraint=eastwest;rotatable=0;whiteSpace=wrap;html=1;labelBackgroundColor=none;rounded=1;fontColor=#1A1A1A;" vertex="1" parent="V9Rv2FVIS_NpuzhTLpX6-167">
          <mxGeometry y="80" width="140" height="30" as="geometry" />
        </mxCell>
        <mxCell id="V9Rv2FVIS_NpuzhTLpX6-171" style="edgeStyle=elbowEdgeStyle;rounded=1;orthogonalLoop=1;jettySize=auto;html=1;entryX=0;entryY=0.866;entryDx=0;entryDy=0;entryPerimeter=0;fontSize=12;startSize=8;endSize=8;labelBackgroundColor=none;fontColor=default;strokeColor=#182E3E;" edge="1" parent="1" source="V9Rv2FVIS_NpuzhTLpX6-115" target="V9Rv2FVIS_NpuzhTLpX6-84">
          <mxGeometry relative="1" as="geometry">
            <Array as="points">
              <mxPoint x="-410" y="220" />
            </Array>
          </mxGeometry>
        </mxCell>
        <mxCell id="V9Rv2FVIS_NpuzhTLpX6-172" style="edgeStyle=elbowEdgeStyle;rounded=1;orthogonalLoop=1;jettySize=auto;html=1;entryX=0;entryY=0.315;entryDx=0;entryDy=0;entryPerimeter=0;fontSize=12;startSize=8;endSize=8;labelBackgroundColor=none;fontColor=default;strokeColor=#182E3E;" edge="1" parent="1" source="V9Rv2FVIS_NpuzhTLpX6-114" target="V9Rv2FVIS_NpuzhTLpX6-84">
          <mxGeometry relative="1" as="geometry" />
        </mxCell>
        <mxCell id="V9Rv2FVIS_NpuzhTLpX6-173" style="edgeStyle=elbowEdgeStyle;rounded=1;orthogonalLoop=1;jettySize=auto;html=1;entryX=1;entryY=0.5;entryDx=0;entryDy=0;fontSize=12;startSize=8;endSize=8;labelBackgroundColor=none;fontColor=default;strokeColor=#182E3E;" edge="1" parent="1" source="V9Rv2FVIS_NpuzhTLpX6-90" target="V9Rv2FVIS_NpuzhTLpX6-168">
          <mxGeometry relative="1" as="geometry" />
        </mxCell>
        <mxCell id="V9Rv2FVIS_NpuzhTLpX6-174" style="edgeStyle=orthogonalEdgeStyle;rounded=1;orthogonalLoop=1;jettySize=auto;html=1;entryX=1;entryY=0.5;entryDx=0;entryDy=0;endSize=8;startSize=8;" edge="1" parent="1" source="V9Rv2FVIS_NpuzhTLpX6-54" target="V9Rv2FVIS_NpuzhTLpX6-61">
          <mxGeometry relative="1" as="geometry">
            <Array as="points">
              <mxPoint x="40" y="795" />
              <mxPoint x="40" y="435" />
            </Array>
          </mxGeometry>
        </mxCell>
        <mxCell id="V9Rv2FVIS_NpuzhTLpX6-175" style="edgeStyle=orthogonalEdgeStyle;rounded=1;orthogonalLoop=1;jettySize=auto;html=1;endSize=8;startSize=8;" edge="1" parent="1" source="V9Rv2FVIS_NpuzhTLpX6-55">
          <mxGeometry relative="1" as="geometry">
            <mxPoint x="-530" y="572" as="targetPoint" />
            <Array as="points">
              <mxPoint x="-510" y="825" />
              <mxPoint x="-510" y="572" />
            </Array>
          </mxGeometry>
        </mxCell>
        <mxCell id="V9Rv2FVIS_NpuzhTLpX6-176" value="Borrows" style="swimlane;fontStyle=0;childLayout=stackLayout;horizontal=1;startSize=30;horizontalStack=0;resizeParent=1;resizeParentMax=0;resizeLast=0;collapsible=1;marginBottom=0;whiteSpace=wrap;html=1;strokeColor=#909090;fontColor=#1A1A1A;fillColor=#F5AB50;rounded=1;" vertex="1" parent="1">
          <mxGeometry x="540" y="480" width="140" height="300" as="geometry" />
        </mxCell>
        <mxCell id="V9Rv2FVIS_NpuzhTLpX6-177" value="BorrowID" style="text;strokeColor=none;fillColor=none;align=left;verticalAlign=middle;spacingLeft=4;spacingRight=4;overflow=hidden;points=[[0,0.5],[1,0.5]];portConstraint=eastwest;rotatable=0;whiteSpace=wrap;html=1;fontColor=#1A1A1A;rounded=1;" vertex="1" parent="V9Rv2FVIS_NpuzhTLpX6-176">
          <mxGeometry y="30" width="140" height="30" as="geometry" />
        </mxCell>
        <mxCell id="V9Rv2FVIS_NpuzhTLpX6-178" value="BookID" style="text;strokeColor=none;fillColor=none;align=left;verticalAlign=middle;spacingLeft=4;spacingRight=4;overflow=hidden;points=[[0,0.5],[1,0.5]];portConstraint=eastwest;rotatable=0;whiteSpace=wrap;html=1;fontColor=#1A1A1A;rounded=1;" vertex="1" parent="V9Rv2FVIS_NpuzhTLpX6-176">
          <mxGeometry y="60" width="140" height="30" as="geometry" />
        </mxCell>
        <mxCell id="V9Rv2FVIS_NpuzhTLpX6-179" value="MemberID" style="text;strokeColor=none;fillColor=none;align=left;verticalAlign=middle;spacingLeft=4;spacingRight=4;overflow=hidden;points=[[0,0.5],[1,0.5]];portConstraint=eastwest;rotatable=0;whiteSpace=wrap;html=1;fontColor=#1A1A1A;rounded=1;" vertex="1" parent="V9Rv2FVIS_NpuzhTLpX6-176">
          <mxGeometry y="90" width="140" height="30" as="geometry" />
        </mxCell>
        <mxCell id="V9Rv2FVIS_NpuzhTLpX6-180" value="BorrowDate" style="text;strokeColor=none;fillColor=none;align=left;verticalAlign=middle;spacingLeft=4;spacingRight=4;overflow=hidden;points=[[0,0.5],[1,0.5]];portConstraint=eastwest;rotatable=0;whiteSpace=wrap;html=1;fontColor=#1A1A1A;rounded=1;" vertex="1" parent="V9Rv2FVIS_NpuzhTLpX6-176">
          <mxGeometry y="120" width="140" height="30" as="geometry" />
        </mxCell>
        <mxCell id="V9Rv2FVIS_NpuzhTLpX6-181" value="ReturnDate" style="text;strokeColor=none;fillColor=none;align=left;verticalAlign=middle;spacingLeft=4;spacingRight=4;overflow=hidden;points=[[0,0.5],[1,0.5]];portConstraint=eastwest;rotatable=0;whiteSpace=wrap;html=1;fontColor=#1A1A1A;rounded=1;" vertex="1" parent="V9Rv2FVIS_NpuzhTLpX6-176">
          <mxGeometry y="150" width="140" height="30" as="geometry" />
        </mxCell>
        <mxCell id="V9Rv2FVIS_NpuzhTLpX6-183" value="DueDate" style="text;strokeColor=none;fillColor=none;align=left;verticalAlign=middle;spacingLeft=4;spacingRight=4;overflow=hidden;points=[[0,0.5],[1,0.5]];portConstraint=eastwest;rotatable=0;whiteSpace=wrap;html=1;fontColor=#1A1A1A;rounded=1;" vertex="1" parent="V9Rv2FVIS_NpuzhTLpX6-176">
          <mxGeometry y="180" width="140" height="30" as="geometry" />
        </mxCell>
        <mxCell id="V9Rv2FVIS_NpuzhTLpX6-184" value="ActualReturnDate" style="text;strokeColor=none;fillColor=none;align=left;verticalAlign=middle;spacingLeft=4;spacingRight=4;overflow=hidden;points=[[0,0.5],[1,0.5]];portConstraint=eastwest;rotatable=0;whiteSpace=wrap;html=1;fontColor=#1A1A1A;rounded=1;" vertex="1" parent="V9Rv2FVIS_NpuzhTLpX6-176">
          <mxGeometry y="210" width="140" height="30" as="geometry" />
        </mxCell>
        <mxCell id="V9Rv2FVIS_NpuzhTLpX6-185" value="PenaltyAmount" style="text;strokeColor=none;fillColor=none;align=left;verticalAlign=middle;spacingLeft=4;spacingRight=4;overflow=hidden;points=[[0,0.5],[1,0.5]];portConstraint=eastwest;rotatable=0;whiteSpace=wrap;html=1;fontColor=#1A1A1A;rounded=1;" vertex="1" parent="V9Rv2FVIS_NpuzhTLpX6-176">
          <mxGeometry y="240" width="140" height="30" as="geometry" />
        </mxCell>
        <mxCell id="V9Rv2FVIS_NpuzhTLpX6-182" value="Status" style="text;strokeColor=none;fillColor=none;align=left;verticalAlign=middle;spacingLeft=4;spacingRight=4;overflow=hidden;points=[[0,0.5],[1,0.5]];portConstraint=eastwest;rotatable=0;whiteSpace=wrap;html=1;fontColor=#1A1A1A;rounded=1;" vertex="1" parent="V9Rv2FVIS_NpuzhTLpX6-176">
          <mxGeometry y="270" width="140" height="30" as="geometry" />
        </mxCell>
        <mxCell id="V9Rv2FVIS_NpuzhTLpX6-186" style="edgeStyle=orthogonalEdgeStyle;rounded=1;orthogonalLoop=1;jettySize=auto;html=1;entryX=0.997;entryY=0.271;entryDx=0;entryDy=0;endSize=8;startSize=8;entryPerimeter=0;" edge="1" parent="1" source="V9Rv2FVIS_NpuzhTLpX6-179" target="V9Rv2FVIS_NpuzhTLpX6-45">
          <mxGeometry relative="1" as="geometry" />
        </mxCell>
        <mxCell id="V9Rv2FVIS_NpuzhTLpX6-188" style="edgeStyle=orthogonalEdgeStyle;rounded=1;orthogonalLoop=1;jettySize=auto;html=1;entryX=0.998;entryY=0.71;entryDx=0;entryDy=0;entryPerimeter=0;endSize=8;startSize=8;" edge="1" parent="1" source="V9Rv2FVIS_NpuzhTLpX6-178" target="V9Rv2FVIS_NpuzhTLpX6-23">
          <mxGeometry relative="1" as="geometry">
            <Array as="points">
              <mxPoint x="520" y="555" />
              <mxPoint x="520" y="161" />
            </Array>
          </mxGeometry>
        </mxCell>
        <mxCell id="V9Rv2FVIS_NpuzhTLpX6-189" style="edgeStyle=orthogonalEdgeStyle;rounded=1;orthogonalLoop=1;jettySize=auto;html=1;entryX=1.003;entryY=0.138;entryDx=0;entryDy=0;entryPerimeter=0;endSize=8;startSize=8;" edge="1" parent="1" source="V9Rv2FVIS_NpuzhTLpX6-36" target="V9Rv2FVIS_NpuzhTLpX6-23">
          <mxGeometry relative="1" as="geometry" />
        </mxCell>
        <mxCell id="V9Rv2FVIS_NpuzhTLpX6-190" value="Reservations" style="swimlane;fontStyle=0;childLayout=stackLayout;horizontal=1;startSize=30;horizontalStack=0;resizeParent=1;resizeParentMax=0;resizeLast=0;collapsible=1;marginBottom=0;whiteSpace=wrap;html=1;strokeColor=#909090;fontColor=#1A1A1A;fillColor=#F5AB50;rounded=1;" vertex="1" parent="1">
          <mxGeometry x="110" y="485" width="140" height="210" as="geometry" />
        </mxCell>
        <mxCell id="V9Rv2FVIS_NpuzhTLpX6-191" value="ReservationID" style="text;strokeColor=none;fillColor=none;align=left;verticalAlign=middle;spacingLeft=4;spacingRight=4;overflow=hidden;points=[[0,0.5],[1,0.5]];portConstraint=eastwest;rotatable=0;whiteSpace=wrap;html=1;fontColor=#1A1A1A;rounded=1;" vertex="1" parent="V9Rv2FVIS_NpuzhTLpX6-190">
          <mxGeometry y="30" width="140" height="30" as="geometry" />
        </mxCell>
        <mxCell id="V9Rv2FVIS_NpuzhTLpX6-192" value="BookID" style="text;strokeColor=none;fillColor=none;align=left;verticalAlign=middle;spacingLeft=4;spacingRight=4;overflow=hidden;points=[[0,0.5],[1,0.5]];portConstraint=eastwest;rotatable=0;whiteSpace=wrap;html=1;fontColor=#1A1A1A;rounded=1;" vertex="1" parent="V9Rv2FVIS_NpuzhTLpX6-190">
          <mxGeometry y="60" width="140" height="30" as="geometry" />
        </mxCell>
        <mxCell id="V9Rv2FVIS_NpuzhTLpX6-193" value="MemberID" style="text;strokeColor=none;fillColor=none;align=left;verticalAlign=middle;spacingLeft=4;spacingRight=4;overflow=hidden;points=[[0,0.5],[1,0.5]];portConstraint=eastwest;rotatable=0;whiteSpace=wrap;html=1;fontColor=#1A1A1A;rounded=1;" vertex="1" parent="V9Rv2FVIS_NpuzhTLpX6-190">
          <mxGeometry y="90" width="140" height="30" as="geometry" />
        </mxCell>
        <mxCell id="V9Rv2FVIS_NpuzhTLpX6-194" value="ReservationDate" style="text;strokeColor=none;fillColor=none;align=left;verticalAlign=middle;spacingLeft=4;spacingRight=4;overflow=hidden;points=[[0,0.5],[1,0.5]];portConstraint=eastwest;rotatable=0;whiteSpace=wrap;html=1;fontColor=#1A1A1A;rounded=1;" vertex="1" parent="V9Rv2FVIS_NpuzhTLpX6-190">
          <mxGeometry y="120" width="140" height="30" as="geometry" />
        </mxCell>
        <mxCell id="V9Rv2FVIS_NpuzhTLpX6-195" value="ExpirationDate" style="text;strokeColor=none;fillColor=none;align=left;verticalAlign=middle;spacingLeft=4;spacingRight=4;overflow=hidden;points=[[0,0.5],[1,0.5]];portConstraint=eastwest;rotatable=0;whiteSpace=wrap;html=1;fontColor=#1A1A1A;rounded=1;" vertex="1" parent="V9Rv2FVIS_NpuzhTLpX6-190">
          <mxGeometry y="150" width="140" height="30" as="geometry" />
        </mxCell>
        <mxCell id="V9Rv2FVIS_NpuzhTLpX6-196" value="Status" style="text;strokeColor=none;fillColor=none;align=left;verticalAlign=middle;spacingLeft=4;spacingRight=4;overflow=hidden;points=[[0,0.5],[1,0.5]];portConstraint=eastwest;rotatable=0;whiteSpace=wrap;html=1;fontColor=#1A1A1A;rounded=1;" vertex="1" parent="V9Rv2FVIS_NpuzhTLpX6-190">
          <mxGeometry y="180" width="140" height="30" as="geometry" />
        </mxCell>
        <mxCell id="V9Rv2FVIS_NpuzhTLpX6-200" style="edgeStyle=orthogonalEdgeStyle;rounded=1;orthogonalLoop=1;jettySize=auto;html=1;entryX=0;entryY=0.5;entryDx=0;entryDy=0;endSize=8;startSize=7;" edge="1" parent="1" source="V9Rv2FVIS_NpuzhTLpX6-193" target="V9Rv2FVIS_NpuzhTLpX6-45">
          <mxGeometry relative="1" as="geometry">
            <Array as="points">
              <mxPoint x="310" y="590" />
              <mxPoint x="310" y="525" />
            </Array>
          </mxGeometry>
        </mxCell>
        <mxCell id="V9Rv2FVIS_NpuzhTLpX6-201" style="edgeStyle=orthogonalEdgeStyle;rounded=1;orthogonalLoop=1;jettySize=auto;html=1;entryX=0;entryY=0.5;entryDx=0;entryDy=0;endSize=8;startSize=8;" edge="1" parent="1" source="V9Rv2FVIS_NpuzhTLpX6-192" target="V9Rv2FVIS_NpuzhTLpX6-23">
          <mxGeometry relative="1" as="geometry">
            <Array as="points">
              <mxPoint x="300" y="560" />
              <mxPoint x="300" y="155" />
            </Array>
          </mxGeometry>
        </mxCell>
        <mxCell id="V9Rv2FVIS_NpuzhTLpX6-202" value="Fines" style="swimlane;fontStyle=0;childLayout=stackLayout;horizontal=1;startSize=30;horizontalStack=0;resizeParent=1;resizeParentMax=0;resizeLast=0;collapsible=1;marginBottom=0;whiteSpace=wrap;html=1;strokeColor=#909090;fontColor=#1A1A1A;fillColor=#F5AB50;rounded=1;" vertex="1" parent="1">
          <mxGeometry x="540" y="810" width="140" height="270" as="geometry" />
        </mxCell>
        <mxCell id="V9Rv2FVIS_NpuzhTLpX6-203" value="FineID" style="text;strokeColor=none;fillColor=none;align=left;verticalAlign=middle;spacingLeft=4;spacingRight=4;overflow=hidden;points=[[0,0.5],[1,0.5]];portConstraint=eastwest;rotatable=0;whiteSpace=wrap;html=1;fontColor=#1A1A1A;rounded=1;" vertex="1" parent="V9Rv2FVIS_NpuzhTLpX6-202">
          <mxGeometry y="30" width="140" height="30" as="geometry" />
        </mxCell>
        <mxCell id="V9Rv2FVIS_NpuzhTLpX6-204" value="MemberID" style="text;strokeColor=none;fillColor=none;align=left;verticalAlign=middle;spacingLeft=4;spacingRight=4;overflow=hidden;points=[[0,0.5],[1,0.5]];portConstraint=eastwest;rotatable=0;whiteSpace=wrap;html=1;fontColor=#1A1A1A;rounded=1;" vertex="1" parent="V9Rv2FVIS_NpuzhTLpX6-202">
          <mxGeometry y="60" width="140" height="30" as="geometry" />
        </mxCell>
        <mxCell id="V9Rv2FVIS_NpuzhTLpX6-205" value="BorrowID" style="text;strokeColor=none;fillColor=none;align=left;verticalAlign=middle;spacingLeft=4;spacingRight=4;overflow=hidden;points=[[0,0.5],[1,0.5]];portConstraint=eastwest;rotatable=0;whiteSpace=wrap;html=1;fontColor=#1A1A1A;rounded=1;" vertex="1" parent="V9Rv2FVIS_NpuzhTLpX6-202">
          <mxGeometry y="90" width="140" height="30" as="geometry" />
        </mxCell>
        <mxCell id="V9Rv2FVIS_NpuzhTLpX6-206" value="FineDate" style="text;strokeColor=none;fillColor=none;align=left;verticalAlign=middle;spacingLeft=4;spacingRight=4;overflow=hidden;points=[[0,0.5],[1,0.5]];portConstraint=eastwest;rotatable=0;whiteSpace=wrap;html=1;fontColor=#1A1A1A;rounded=1;" vertex="1" parent="V9Rv2FVIS_NpuzhTLpX6-202">
          <mxGeometry y="120" width="140" height="30" as="geometry" />
        </mxCell>
        <mxCell id="V9Rv2FVIS_NpuzhTLpX6-207" value="Amount" style="text;strokeColor=none;fillColor=none;align=left;verticalAlign=middle;spacingLeft=4;spacingRight=4;overflow=hidden;points=[[0,0.5],[1,0.5]];portConstraint=eastwest;rotatable=0;whiteSpace=wrap;html=1;fontColor=#1A1A1A;rounded=1;" vertex="1" parent="V9Rv2FVIS_NpuzhTLpX6-202">
          <mxGeometry y="150" width="140" height="30" as="geometry" />
        </mxCell>
        <mxCell id="V9Rv2FVIS_NpuzhTLpX6-209" value="Reason" style="text;strokeColor=none;fillColor=none;align=left;verticalAlign=middle;spacingLeft=4;spacingRight=4;overflow=hidden;points=[[0,0.5],[1,0.5]];portConstraint=eastwest;rotatable=0;whiteSpace=wrap;html=1;fontColor=#1A1A1A;rounded=1;" vertex="1" parent="V9Rv2FVIS_NpuzhTLpX6-202">
          <mxGeometry y="180" width="140" height="30" as="geometry" />
        </mxCell>
        <mxCell id="V9Rv2FVIS_NpuzhTLpX6-210" value="PaidDate" style="text;strokeColor=none;fillColor=none;align=left;verticalAlign=middle;spacingLeft=4;spacingRight=4;overflow=hidden;points=[[0,0.5],[1,0.5]];portConstraint=eastwest;rotatable=0;whiteSpace=wrap;html=1;fontColor=#1A1A1A;rounded=1;" vertex="1" parent="V9Rv2FVIS_NpuzhTLpX6-202">
          <mxGeometry y="210" width="140" height="30" as="geometry" />
        </mxCell>
        <mxCell id="V9Rv2FVIS_NpuzhTLpX6-208" value="Status" style="text;strokeColor=none;fillColor=none;align=left;verticalAlign=middle;spacingLeft=4;spacingRight=4;overflow=hidden;points=[[0,0.5],[1,0.5]];portConstraint=eastwest;rotatable=0;whiteSpace=wrap;html=1;fontColor=#1A1A1A;rounded=1;" vertex="1" parent="V9Rv2FVIS_NpuzhTLpX6-202">
          <mxGeometry y="240" width="140" height="30" as="geometry" />
        </mxCell>
        <mxCell id="V9Rv2FVIS_NpuzhTLpX6-211" style="edgeStyle=orthogonalEdgeStyle;rounded=1;orthogonalLoop=1;jettySize=auto;html=1;entryX=1.002;entryY=0.804;entryDx=0;entryDy=0;entryPerimeter=0;endSize=8;startSize=8;" edge="1" parent="1" source="V9Rv2FVIS_NpuzhTLpX6-204" target="V9Rv2FVIS_NpuzhTLpX6-45">
          <mxGeometry relative="1" as="geometry">
            <Array as="points">
              <mxPoint x="500" y="885" />
              <mxPoint x="500" y="534" />
            </Array>
          </mxGeometry>
        </mxCell>
        <mxCell id="V9Rv2FVIS_NpuzhTLpX6-212" style="edgeStyle=orthogonalEdgeStyle;rounded=1;orthogonalLoop=1;jettySize=auto;html=1;entryX=1;entryY=0.5;entryDx=0;entryDy=0;" edge="1" parent="1" source="V9Rv2FVIS_NpuzhTLpX6-205" target="V9Rv2FVIS_NpuzhTLpX6-177">
          <mxGeometry relative="1" as="geometry">
            <Array as="points">
              <mxPoint x="710" y="915" />
              <mxPoint x="710" y="525" />
            </Array>
          </mxGeometry>
        </mxCell>
        <mxCell id="V9Rv2FVIS_NpuzhTLpX6-213" value="AuditLog" style="swimlane;fontStyle=0;childLayout=stackLayout;horizontal=1;startSize=30;horizontalStack=0;resizeParent=1;resizeParentMax=0;resizeLast=0;collapsible=1;marginBottom=0;whiteSpace=wrap;html=1;strokeColor=#909090;fontColor=#1A1A1A;fillColor=#F5AB50;rounded=1;" vertex="1" parent="1">
          <mxGeometry x="110" y="870" width="140" height="180" as="geometry" />
        </mxCell>
        <mxCell id="V9Rv2FVIS_NpuzhTLpX6-214" value="LogID" style="text;strokeColor=none;fillColor=none;align=left;verticalAlign=middle;spacingLeft=4;spacingRight=4;overflow=hidden;points=[[0,0.5],[1,0.5]];portConstraint=eastwest;rotatable=0;whiteSpace=wrap;html=1;fontColor=#1A1A1A;rounded=1;" vertex="1" parent="V9Rv2FVIS_NpuzhTLpX6-213">
          <mxGeometry y="30" width="140" height="30" as="geometry" />
        </mxCell>
        <mxCell id="V9Rv2FVIS_NpuzhTLpX6-215" value="EventType" style="text;strokeColor=none;fillColor=none;align=left;verticalAlign=middle;spacingLeft=4;spacingRight=4;overflow=hidden;points=[[0,0.5],[1,0.5]];portConstraint=eastwest;rotatable=0;whiteSpace=wrap;html=1;fontColor=#1A1A1A;rounded=1;" vertex="1" parent="V9Rv2FVIS_NpuzhTLpX6-213">
          <mxGeometry y="60" width="140" height="30" as="geometry" />
        </mxCell>
        <mxCell id="V9Rv2FVIS_NpuzhTLpX6-216" value="EventDescription" style="text;strokeColor=none;fillColor=none;align=left;verticalAlign=middle;spacingLeft=4;spacingRight=4;overflow=hidden;points=[[0,0.5],[1,0.5]];portConstraint=eastwest;rotatable=0;whiteSpace=wrap;html=1;fontColor=#1A1A1A;rounded=1;" vertex="1" parent="V9Rv2FVIS_NpuzhTLpX6-213">
          <mxGeometry y="90" width="140" height="30" as="geometry" />
        </mxCell>
        <mxCell id="V9Rv2FVIS_NpuzhTLpX6-217" value="EventDate" style="text;strokeColor=none;fillColor=none;align=left;verticalAlign=middle;spacingLeft=4;spacingRight=4;overflow=hidden;points=[[0,0.5],[1,0.5]];portConstraint=eastwest;rotatable=0;whiteSpace=wrap;html=1;fontColor=#1A1A1A;rounded=1;" vertex="1" parent="V9Rv2FVIS_NpuzhTLpX6-213">
          <mxGeometry y="120" width="140" height="30" as="geometry" />
        </mxCell>
        <mxCell id="V9Rv2FVIS_NpuzhTLpX6-218" value="UserID" style="text;strokeColor=none;fillColor=none;align=left;verticalAlign=middle;spacingLeft=4;spacingRight=4;overflow=hidden;points=[[0,0.5],[1,0.5]];portConstraint=eastwest;rotatable=0;whiteSpace=wrap;html=1;fontColor=#1A1A1A;rounded=1;" vertex="1" parent="V9Rv2FVIS_NpuzhTLpX6-213">
          <mxGeometry y="150" width="140" height="30" as="geometry" />
        </mxCell>
        <mxCell id="V9Rv2FVIS_NpuzhTLpX6-220" value="&lt;font style=&quot;font-size: 30px;&quot;&gt;Education&lt;/font&gt;" style="text;html=1;align=center;verticalAlign=middle;resizable=0;points=[];autosize=1;strokeColor=none;fillColor=none;" vertex="1" parent="1">
          <mxGeometry x="-550" y="28" width="160" height="50" as="geometry" />
        </mxCell>
        <mxCell id="V9Rv2FVIS_NpuzhTLpX6-221" value="&lt;font style=&quot;font-size: 30px;&quot;&gt;Library&lt;/font&gt;" style="text;html=1;align=center;verticalAlign=middle;resizable=0;points=[];autosize=1;strokeColor=none;fillColor=none;" vertex="1" parent="1">
          <mxGeometry x="340" y="28" width="120" height="50" as="geometry" />
        </mxCell>
      </root>
    </mxGraphModel>
  </diagram>
</mxfile>
